<svg width="363" height="140" viewBox="0 0 363 140" fill="none" xmlns="http://www.w3.org/2000/svg">
<path d="M228.99 138.221L171.151 136.577C171.151 136.577 175.504 110.504 161.537 103.267C152.016 98.3321 143.564 75.277 145.969 59.5928C146.001 59.3827 146.035 59.1754 146.072 58.971C147.291 51.9465 150.774 46.5092 157.43 45.0328C178.956 40.2628 194.319 43.9624 194.319 43.9624C194.319 43.9624 197.875 44.0079 203.145 44.9987C203.332 45.0328 203.519 45.0697 203.709 45.1095C218.627 48.0368 246.199 58.457 247.393 95.4531C249.035 146.282 228.99 138.221 228.99 138.221Z" fill="#3F3D56"/>
<path d="M203.145 44.9987C203.048 47.6506 202.447 50.2855 201.35 52.7926C199.075 57.9857 194.931 61.9522 189.682 63.9624C173.962 69.9875 155.612 64.0107 146.332 57.5314C146.296 57.7358 145.558 61.6182 145.527 61.8283C149.637 64.642 169.744 67.3582 173.559 67.3582C179.35 67.3582 184.926 66.3957 189.886 64.4934C195.277 62.4264 199.532 58.352 201.869 53.0197C202.983 50.4757 203.598 47.8011 203.709 45.1095C203.519 45.0697 203.332 45.0328 203.145 44.9987H203.145V44.9987Z" fill="#68E195"/>
<path d="M207.422 48.3752L198.202 25.1676C198.202 25.1676 209.266 6.17947 200.573 4.06968C191.88 1.9599 182.923 13.3 182.923 13.3C182.923 13.3 166.328 7.49809 160.005 12.2451C160.005 12.2451 149.469 -2.52341 143.146 0.377552C136.824 3.27851 145.393 24.1876 145.393 24.1876C145.393 24.1876 132.346 43.3645 142.356 54.4409C152.366 65.5173 190.036 74.4838 207.422 48.3752H207.422Z" fill="#3F3D56"/>
<path d="M227.195 124.331C230.334 125.729 233.614 127.156 237.046 127.019C240.479 126.883 244.092 124.669 244.627 121.272C244.903 119.518 244.355 117.636 245.026 115.993C245.928 113.781 248.839 112.929 251.102 113.686C253.365 114.444 255.028 116.399 256.22 118.468C258.45 122.34 259.343 127.422 256.952 131.196C254.879 134.468 250.948 135.946 247.291 137.215C242.42 138.904 236.982 140.58 232.262 138.505C227.514 136.419 224.929 130.389 226.687 125.506" fill="#3F3D56"/>
<path d="M175.26 37.9403C175.26 37.9403 169.588 35.6688 165.901 38.5081L170.155 45.0385C170.155 45.0385 175.26 37.9403 175.26 37.9402V37.9403Z" fill="#68E195"/>
<path d="M145.482 67.7529L155.975 123.687C155.975 123.687 140.093 139.871 160.513 139.587C180.933 139.303 174.977 128.798 174.977 128.798L168.454 80.2458" fill="#3F3D56"/>
<path d="M159.998 140C154.468 140 151.123 138.731 150.052 136.225C148.102 131.659 154.45 124.697 155.538 123.552L148.482 81.7336L149.288 81.5974L156.413 123.825L156.267 123.974C156.193 124.049 148.933 131.524 150.804 135.903C151.765 138.153 155.023 139.257 160.507 139.178C168.13 139.072 173.046 137.473 174.723 134.554C176.233 131.925 174.637 129.028 174.621 128.999L174.582 128.931L174.572 128.852L170.034 95.0648L170.844 94.9557L175.372 128.669C175.641 129.179 177.052 132.13 175.436 134.954C173.585 138.188 168.566 139.884 160.518 139.996C160.343 139.999 160.169 140 159.998 140Z" fill="#2F2E41"/>
<path d="M172.141 67.7529L182.634 123.687C182.634 123.687 166.752 139.871 187.172 139.587C207.592 139.303 201.636 128.798 201.636 128.798L195.113 80.2458" fill="#3F3D56"/>
<path d="M186.656 140C181.127 140 177.782 138.731 176.712 136.225C174.763 131.664 181.096 124.711 182.193 123.555L177.978 101.048L178.782 100.897L183.075 123.821L182.926 123.974C182.852 124.049 175.592 131.524 177.463 135.903C178.425 138.152 181.685 139.261 187.166 139.178C194.795 139.072 199.712 137.47 201.386 134.547C202.895 131.909 201.297 129.029 201.28 129L201.241 128.931L194.708 80.3005L195.518 80.1913L202.031 128.669C202.3 129.179 203.711 132.13 202.095 134.954C200.244 138.188 195.225 139.884 187.177 139.996C187.002 139.999 186.828 140 186.656 140H186.656Z" fill="#2F2E41"/>
</svg>
