<svg width="1038" height="735" viewBox="0 0 1038 735" fill="none" xmlns="http://www.w3.org/2000/svg">
<g clip-path="url(#clip0_20_50)">
<path opacity="0.1" d="M345.092 734.587C395.642 734.587 436.621 728.007 436.621 719.891C436.621 711.775 395.642 705.196 345.092 705.196C294.542 705.196 253.563 711.775 253.563 719.891C253.563 728.007 294.542 734.587 345.092 734.587Z" fill="#3DD775"/>
<path opacity="0.1" d="M842.628 735C905.707 735 956.842 728.421 956.842 720.305C956.842 712.188 905.707 705.609 842.628 705.609C779.55 705.609 728.415 712.188 728.415 720.305C728.415 728.421 779.55 735 842.628 735Z" fill="#3DD775"/>
<path opacity="0.1" d="M13.0004 317.573H108.333V447.466H19.9796C19.7448 448.799 19.5194 450.142 19.2751 451.485H108.333V556.241C108.174 556.194 108.033 556.138 107.882 556.081C105.365 555.086 102.866 554.034 100.368 552.907L98.7708 552.184C96.2659 551.001 93.7611 549.749 91.2562 548.428C90.3826 547.968 89.509 547.489 88.6448 547.001C74.7388 539.214 62.1059 529.347 51.1842 517.741C50.8649 517.432 50.5643 517.103 50.2449 516.802C48.7232 515.15 47.2297 513.478 45.7831 511.769L44.1862 509.891C42.4766 507.797 40.8234 505.647 39.2171 503.469C38.9823 503.149 38.7569 502.83 38.5126 502.53C31.98 493.475 26.5559 483.671 22.3561 473.326C22.2246 473.016 22.1119 472.678 21.9898 472.387C20.6998 469.07 19.5569 465.72 18.5612 462.34C18.1291 460.922 17.7158 459.523 17.3589 458.049C17.2274 457.617 17.1147 457.194 17.0113 456.772C11.6759 435.954 11.0466 414.328 11.0466 392.853C11.0466 390.346 11.0466 387.83 11.0466 385.341C11.0466 376.655 11.1499 367.913 11.3002 359.18C11.3002 356.917 11.3941 354.664 11.4411 352.391C11.5726 346.626 11.7605 340.86 12.0047 335.095C12.061 333.489 12.1362 331.893 12.2207 330.296C12.2207 329.376 12.2677 328.456 12.3616 327.536C12.5871 324.193 12.7749 320.878 13.0004 317.573Z" fill="#3DD775"/>
<path opacity="0.1" d="M108.333 172.947H56.0406C64.541 159.646 73.8288 146.866 83.8542 134.673C91.6225 125.132 99.8229 115.836 108.333 106.878V172.947Z" fill="#3DD775"/>
<path opacity="0.1" d="M131.093 317.563V447.466H334.712V317.563H131.093ZM131.093 451.476V563.03C132.258 563.274 133.413 563.509 134.559 563.706C136.119 564.006 137.669 564.279 139.256 564.513C139.557 564.56 139.867 564.607 140.195 564.636C140.815 564.739 141.454 564.823 142.074 564.908C143.643 565.124 145.202 565.302 146.771 565.443C147.513 565.518 148.264 565.584 149.016 565.64L150.829 565.781C151.815 565.856 152.792 565.913 153.759 565.941C154.361 565.941 154.962 565.997 155.582 566.016C156.051 566.016 156.521 566.016 157.009 566.016C157.498 566.016 158.193 566.016 158.785 566.016C159.593 566.016 160.4 566.016 161.199 566.016H162.279C163.087 566.016 163.895 566.016 164.693 565.941H164.75C165.304 565.941 165.867 565.941 166.431 565.866C166.587 565.875 166.744 565.875 166.901 565.866C167.37 565.866 167.84 565.866 168.291 565.8H168.62L171.766 565.556C172.8 565.462 173.842 565.34 174.894 565.227L177.036 564.974C185.749 563.753 194.365 561.921 202.821 559.49C221.814 554.194 240.394 546.785 259.378 541.357C283.923 534.362 311.041 530.925 334.759 539.48V451.476H131.093ZM334.712 172.947V0.00939022C312.42 -0.232051 290.187 2.37445 268.555 7.76561C216.995 20.7145 170.733 48.8003 131.093 84.6705V172.937H141.313V176.947H131.093V313.554H334.712V176.956H183.273V172.947H334.712ZM596.251 114.531C583.495 114.08 570.814 110.042 559.344 103.807C537.411 91.882 519.892 73.4681 500.317 57.9275C459.644 25.5598 409.201 6.02844 357.454 1.18315V172.947H648.13L648.853 172.186L596.251 114.531ZM622.73 109.836L650.807 140.635V101.76C641.404 102.925 633.166 105.695 622.768 109.798L622.73 109.836ZM650.807 590.731V451.476H590.981C590.821 450.884 590.662 450.283 590.474 449.682C590.652 450.283 590.803 450.884 590.972 451.476H357.491V552.184C359.708 553.828 361.897 555.555 364.067 557.311C366.405 559.189 368.716 561.171 371.036 563.114L373.375 565.049C374.493 565.988 375.62 566.927 376.757 567.809C379.011 569.637 381.288 571.44 383.586 573.218C384.722 574.157 385.887 575.002 387.043 575.885C405.385 589.904 424.734 602.555 444.934 613.736C449.461 616.24 454.03 618.685 458.639 621.07C461.71 622.638 464.801 624.197 467.9 625.709C472.559 627.981 477.256 630.172 481.99 632.282C525.638 651.868 571.792 665.308 619.133 672.218C629.647 673.77 640.202 674.991 650.798 675.88V590.721H651.737L650.807 590.731ZM357.491 176.956V313.554H650.845V176.956H357.491ZM357.491 317.563V447.466H650.845V317.563H357.491ZM673.614 101.591V144.955L709.45 105.648C697.577 103.732 685.631 102.365 673.614 101.544V101.591ZM673.614 317.61V447.466H958.936V317.563L673.614 317.61ZM957.894 601.041L958.899 451.476H673.614V677.373C691.992 678.145 710.399 677.925 728.753 676.716H729.072C737.839 676.165 746.566 675.363 755.252 674.312H755.449C801.787 668.921 847.096 656.835 889.961 638.432M1013.95 338.954C1012.88 336.428 1011.76 333.921 1010.63 331.442C1008.51 326.747 1006.26 322.183 1003.95 317.62H981.687V447.466H1037.97C1037.94 410.694 1028.63 373.134 1013.98 338.907L1013.95 338.954ZM981.687 451.522V580.167C997.543 564.974 1010.94 547.593 1020.58 527.723C1032.19 503.797 1037.49 477.89 1037.92 451.504L981.687 451.522ZM981.687 279.759V313.563H1001.86C995.76 301.926 989.034 290.626 981.715 279.712L981.687 279.759ZM788.185 127.076C786.7 126.513 785.216 125.94 783.723 125.386C767.971 119.571 751.875 114.735 735.526 110.906L680.687 171.069L679.635 172.186L680.34 172.956H875.514C848.332 154.251 819.027 138.835 788.213 127.029L788.185 127.076ZM881.235 177.003H677.616L673.614 180.665V313.554H708.689H708.745H958.974V249.185C936.338 221.818 910.212 197.535 881.263 176.956L881.235 177.003Z" fill="#3DD775"/>
<path opacity="0.1" d="M108.333 245.861V313.554H13.301C13.301 313.16 13.3667 312.756 13.3949 312.361C13.4794 311.282 13.564 310.202 13.6579 309.131C13.7612 307.873 13.874 306.605 13.9961 305.375C14.1182 304.145 14.2497 302.643 14.3906 301.281C14.5315 299.92 14.663 298.539 14.8227 297.178C14.9824 295.816 15.1233 294.454 15.2923 293.102C15.4614 291.75 15.6117 290.379 15.7902 289.027C15.9311 287.9 16.0814 286.783 16.2317 285.656C16.4477 284.069 16.6732 282.473 16.9174 280.895C16.9174 280.66 16.9831 280.416 17.0207 280.191C18.7352 268.643 21.0712 257.195 24.0187 245.898L108.333 245.861Z" fill="#3DD775"/>
<path opacity="0.1" d="M13.0004 317.573H108.333V447.466H19.9796C19.7448 448.799 19.5194 450.142 19.2751 451.485H108.333V556.241C108.174 556.194 108.033 556.138 107.882 556.081C105.365 555.086 102.866 554.034 100.368 552.907L98.7708 552.184C96.2659 551.001 93.7611 549.749 91.2562 548.428C90.3826 547.968 89.509 547.489 88.6448 547.001C74.7388 539.214 62.1059 529.347 51.1842 517.741C50.8649 517.432 50.5643 517.103 50.2449 516.802C48.7232 515.15 47.2297 513.478 45.7831 511.769L44.1862 509.891C42.4766 507.797 40.8234 505.647 39.2171 503.469C38.9823 503.149 38.7569 502.83 38.5126 502.53C31.98 493.475 26.5559 483.671 22.3561 473.326C22.2246 473.016 22.1119 472.678 21.9898 472.387C20.6998 469.07 19.5569 465.72 18.5612 462.34C18.1291 460.922 17.7158 459.523 17.3589 458.049C17.2274 457.617 17.1147 457.194 17.0113 456.772C11.6759 435.954 11.0466 414.328 11.0466 392.853C11.0466 390.346 11.0466 387.83 11.0466 385.341C11.0466 376.655 11.1499 367.913 11.3002 359.18C11.3002 356.917 11.3941 354.664 11.4411 352.391C11.5726 346.626 11.7605 340.86 12.0047 335.095C12.061 333.489 12.1362 331.893 12.2207 330.296C12.2207 329.376 12.2677 328.456 12.3616 327.536C12.5871 324.193 12.7749 320.878 13.0004 317.573Z" fill="#3DD775"/>
<path opacity="0.1" d="M202.774 196.516V313.554H131.093V196.516H141.313V156.89H183.264V196.516H202.774Z" fill="#3DD775"/>
<path opacity="0.1" d="M202.774 317.564H131.103V447.457H202.774V317.564Z" fill="#3DD775"/>
<path opacity="0.1" d="M131.093 451.485H202.774V559.471C194.318 561.9 185.702 563.729 176.989 564.945L174.847 565.208C173.795 565.33 172.753 565.434 171.719 565.537C170.686 565.64 169.615 565.715 168.573 565.781H168.244C167.793 565.781 167.305 565.837 166.863 565.847H166.384C165.82 565.847 165.257 565.903 164.693 565.922C163.895 565.969 163.096 565.978 162.279 565.988C161.932 565.988 161.603 565.988 161.255 565.988C160.447 565.988 159.649 565.988 158.841 565.988H157.066C156.587 565.988 156.126 565.988 155.629 565.988L153.816 565.922C152.876 565.922 151.862 565.819 150.885 565.753L149.081 565.622L146.836 565.415C145.258 565.274 143.69 565.096 142.14 564.88L140.261 564.617L139.322 564.485C137.753 564.241 136.203 563.978 134.625 563.678C133.47 563.481 132.324 563.236 131.159 563.002L131.093 451.485Z" fill="#3DD775"/>
<path opacity="0.1" d="M650.845 182.694H591.742V313.545H650.845V182.694Z" fill="#3DD775"/>
<path opacity="0.1" d="M650.854 317.564V447.466H357.491V391.435H513.749V424.488H591.742V317.564H650.854Z" fill="#3DD775"/>
<path opacity="0.1" d="M651.784 590.759H650.845V675.974C640.262 675.079 629.71 673.861 619.189 672.321C571.825 665.389 525.651 651.921 481.99 632.301C469.384 626.629 457.035 620.438 444.943 613.727C424.744 602.54 405.392 589.889 387.043 575.876C382.434 572.345 377.884 568.733 373.394 565.039C370.285 562.476 367.195 559.847 364.067 557.293C361.897 555.537 359.708 553.809 357.491 552.156V451.485H590.962C590.803 450.884 590.643 450.283 590.474 449.692C590.652 450.283 590.821 450.884 590.981 451.485H650.845V590.703C651.164 590.712 651.474 590.74 651.784 590.759Z" fill="#3DD775"/>
<path opacity="0.1" d="M804.989 172.947H766.477V160.984H783.741V125.348C785.238 125.893 786.729 126.453 788.213 127.029V160.984H804.989V172.947Z" fill="#3DD775"/>
<path opacity="0.1" d="M897.776 313.554H708.707C708.707 313.554 708.707 313.554 708.773 313.601L708.689 313.554H673.614V182.703H683.552V279.421H728.969V222.141H766.486V176.966H804.998V222.179H842.515V279.458H897.776V313.554Z" fill="#3DD775"/>
<path opacity="0.1" d="M673.614 317.564V447.466H897.776V317.564H673.614ZM958.626 600.374L958.936 497.553H897.776V451.541H673.614V677.373C691.992 678.145 710.398 677.925 728.753 676.716H729.072C737.839 676.165 746.566 675.364 755.251 674.312H755.449C801.786 668.921 847.096 656.835 889.961 638.432" fill="#3DD775"/>
<path opacity="0.1" d="M985.67 451.485H1037.96C1037.5 477.862 1032.2 503.769 1020.61 527.695C1010.97 547.574 997.562 564.955 981.725 580.139V497.506H985.67V451.485Z" fill="#3DD775"/>
<path opacity="0.1" d="M1037.99 447.466H985.67V338.907H1013.98C1028.63 373.134 1037.94 410.694 1037.99 447.466Z" fill="#3DD775"/>
<path opacity="0.1" d="M650.854 219.071H619.189V260.096H650.854V219.071Z" fill="#3DD775"/>
<path opacity="0.1" d="M650.854 304.107H619.189V313.554H650.854V304.107Z" fill="#3DD775"/>
<path opacity="0.1" d="M650.854 317.564H619.189V345.123H650.854V317.564Z" fill="#3DD775"/>
<path opacity="0.1" d="M650.854 389.144H619.189V430.169H650.854V389.144Z" fill="#3DD775"/>
<path opacity="0.1" d="M650.854 474.181H619.189V515.206H650.854V474.181Z" fill="#3DD775"/>
<path opacity="0.1" d="M650.845 590.702C651.164 590.702 651.474 590.702 651.784 590.759H650.845V600.29H619.189V559.217H650.845V590.702Z" fill="#3DD775"/>
<path opacity="0.1" d="M650.845 644.235V675.927C640.262 675.032 629.71 673.814 619.189 672.274V644.235H650.845Z" fill="#3DD775"/>
<path opacity="0.1" d="M493.197 444.452H357.491V447.466H493.197V444.452Z" fill="#3DD775"/>
<path opacity="0.1" d="M493.197 451.476H357.491V463.025H493.197V451.476Z" fill="#3DD775"/>
<path opacity="0.1" d="M493.197 500.886H357.491V519.46H493.197V500.886Z" fill="#3DD775"/>
<path opacity="0.1" d="M493.187 557.321V575.894H387.043C382.434 572.376 377.881 568.764 373.385 565.058C370.276 562.495 367.194 559.865 364.057 557.321H493.187Z" fill="#3DD775"/>
<path opacity="0.1" d="M493.187 613.746V632.301H481.981C469.388 626.623 457.042 620.428 444.943 613.718L493.187 613.746Z" fill="#3DD775"/>
<path opacity="0.1" d="M755.477 330.156H728.762V356.861H755.477V330.156Z" fill="#3DD775"/>
<path opacity="0.1" d="M177.055 205.728H150.34V232.433H177.055V205.728Z" fill="#3DD775"/>
<path opacity="0.1" d="M177.055 267.758H150.34V294.464H177.055V267.758Z" fill="#3DD775"/>
<path opacity="0.1" d="M177.055 329.789H150.34V356.495H177.055V329.789Z" fill="#3DD775"/>
<path opacity="0.1" d="M177.055 391.811H150.34V418.516H177.055V391.811Z" fill="#3DD775"/>
<path opacity="0.1" d="M177.055 453.842H150.34V480.547H177.055V453.842Z" fill="#3DD775"/>
<path opacity="0.1" d="M177.055 515.873H150.34V542.578H177.055V515.873Z" fill="#3DD775"/>
<path opacity="0.1" d="M857.46 330.156H830.746V356.861H857.46V330.156Z" fill="#3DD775"/>
<path opacity="0.1" d="M755.477 396.027H728.762V422.733H755.477V396.027Z" fill="#3DD775"/>
<path opacity="0.1" d="M857.46 396.027H830.746V422.733H857.46V396.027Z" fill="#3DD775"/>
<path opacity="0.1" d="M755.477 461.889H728.762V488.595H755.477V461.889Z" fill="#3DD775"/>
<path opacity="0.1" d="M857.46 461.889H830.746V488.595H857.46V461.889Z" fill="#3DD775"/>
<path opacity="0.1" d="M755.477 527.761H728.762V554.466H755.477V527.761Z" fill="#3DD775"/>
<path opacity="0.1" d="M857.46 527.761H830.746V554.466H857.46V527.761Z" fill="#3DD775"/>
<path opacity="0.1" d="M755.477 593.632H728.762V620.338H755.477V593.632Z" fill="#3DD775"/>
<path opacity="0.1" d="M857.46 593.632H830.746V620.338H857.46V593.632Z" fill="#3DD775"/>
<path opacity="0.1" d="M728.762 676.716V659.494H755.468V674.265L728.762 676.716Z" fill="#3DD775"/>
<path opacity="0.1" d="M16.908 280.172V295.45H108.333V280.172H16.908ZM26.0195 294.492H18.5612V281.111H26.0758L26.0195 294.492ZM35.1216 294.492H27.607V281.111H35.1216V294.492ZM44.205 294.492H36.6903V281.111H44.205V294.492ZM53.3071 294.492H45.8018V281.111H53.3165L53.3071 294.492ZM62.3998 294.492H54.8852V281.111H62.3998V294.492ZM71.502 294.492H63.9873V281.111H71.502V294.492ZM80.6041 294.492H73.0894V281.111H80.6041V294.492ZM89.6968 294.492H82.1822V281.111H89.6968V294.492ZM98.7896 294.492H91.2749V281.111H98.7896V294.492ZM107.882 294.492H100.368V281.111H107.882V294.492Z" fill="#3DD775"/>
<path opacity="0.1" d="M16.908 324.625V339.903H108.333V324.625H16.908ZM26.0195 338.935H18.5612V325.592H26.0758L26.0195 338.935ZM35.1216 338.935H27.607V325.592H35.1216V338.935ZM44.205 338.935H36.6903V325.592H44.205V338.935ZM53.3071 338.935H45.8018V325.592H53.3165L53.3071 338.935ZM62.3998 338.935H54.8852V325.592H62.3998V338.935ZM71.502 338.935H63.9873V325.592H71.502V338.935ZM80.6041 338.935H73.0894V325.592H80.6041V338.935ZM89.6968 338.935H82.1822V325.592H89.6968V338.935ZM98.7896 338.935H91.2749V325.592H98.7896V338.935ZM107.882 338.935H100.368V325.592H107.882V338.935Z" fill="#3DD775"/>
<path opacity="0.1" d="M16.908 369.096V384.402H108.333V369.096H16.908ZM26.0195 383.407H18.5612V370.054H26.0758L26.0195 383.407ZM35.1216 383.407H27.607V370.054H35.1216V383.407ZM44.205 383.407H36.6903V370.054H44.205V383.407ZM53.3071 383.407H45.8018V370.054H53.3165L53.3071 383.407ZM62.3998 383.407H54.8852V370.054H62.3998V383.407ZM71.502 383.407H63.9873V370.054H71.502V383.407ZM80.6041 383.407H73.0894V370.054H80.6041V383.407ZM89.6968 383.407H82.1822V370.054H89.6968V383.407ZM98.7896 383.407H91.2749V370.054H98.7896V383.407ZM107.882 383.407H100.368V370.054H107.882V383.407Z" fill="#3DD775"/>
<path opacity="0.1" d="M16.908 413.568V428.827H108.333V413.568H16.908ZM26.0195 427.878H18.5612V414.516H26.0758L26.0195 427.878ZM35.1216 427.878H27.607V414.516H35.1216V427.878ZM44.205 427.878H36.6903V414.516H44.205V427.878ZM53.3071 427.878H45.8018V414.516H53.3165L53.3071 427.878ZM62.3998 427.878H54.8852V414.516H62.3998V427.878ZM71.502 427.878H63.9873V414.516H71.502V427.878ZM80.6041 427.878H73.0894V414.516H80.6041V427.878ZM89.6968 427.878H82.1822V414.516H89.6968V427.878ZM98.7896 427.878H91.2749V414.516H98.7896V427.878ZM107.882 427.878H100.368V414.516H107.882V427.878Z" fill="#3DD775"/>
<path opacity="0.1" d="M17.3025 458.03C17.6688 459.467 18.0821 460.903 18.5142 462.321V458.988H26.0289V472.34H22.0085C22.1307 472.65 22.2528 472.988 22.3749 473.279H108.333V458.03H17.3025ZM35.1498 472.34H27.6351V458.988H35.1498V472.34ZM44.2332 472.34H36.7185V458.988H44.2332V472.34ZM53.3353 472.34H45.8018V458.988H53.3165L53.3353 472.34ZM62.428 472.34H54.9134V458.988H62.428V472.34ZM71.5302 472.34H64.0155V458.988H71.5302V472.34ZM80.6323 472.34H73.1176V458.988H80.6323V472.34ZM89.725 472.34H82.2104V458.988H89.725V472.34ZM98.8178 472.34H91.3031V458.988H98.8178V472.34ZM107.91 472.34H100.396V458.988H107.91V472.34Z" fill="#3DD775"/>
<path opacity="0.1" d="M38.5314 502.501C38.7663 502.802 38.9917 503.14 39.2359 503.44H44.205V509.854C44.7404 510.492 45.2664 511.131 45.8113 511.732V503.403H53.3259V516.802H50.2825C50.5831 517.112 50.8743 517.441 51.2218 517.741H108.361V502.501H38.5314ZM62.3999 516.802H54.8852V503.459H62.3999V516.802ZM71.502 516.802H63.9873V503.459H71.502V516.802ZM80.6041 516.802H73.0895V503.459H80.6041V516.802ZM89.6969 516.802H82.1822V503.459H89.6969V516.802ZM98.7896 516.802H91.275V503.459H98.7896V516.802ZM107.882 516.802H100.368V503.459H107.882V516.802Z" fill="#3DD775"/>
<path opacity="0.1" d="M88.6824 546.963C89.5372 547.452 90.4107 547.902 91.2937 548.391V547.921H98.8084V552.147L100.405 552.889V547.921H107.92V556.044C108.064 556.115 108.215 556.172 108.371 556.213V546.963H88.6824Z" fill="#3DD775"/>
<path opacity="0.1" d="M708.708 313.554H708.764H708.708ZM650.845 590.693H651.784H650.845ZM590.474 449.682C590.652 450.283 590.803 450.884 590.972 451.476C590.821 450.884 590.662 450.283 590.474 449.682ZM708.708 313.526H708.764H708.708ZM141.351 172.919V176.928H183.311V172.919H141.351ZM650.845 590.693H651.784H650.845ZM590.474 449.682C590.652 450.283 590.803 450.884 590.972 451.476C590.821 450.884 590.662 450.283 590.474 449.682ZM708.708 313.526H708.764H708.708ZM650.845 590.665H651.784H650.845ZM590.474 449.682C590.652 450.283 590.803 450.884 590.972 451.476C590.821 450.884 590.662 450.283 590.474 449.682Z" fill="#3DD775"/>
<path d="M433.596 356.514C433.596 356.514 429.895 355.997 429.895 350.607C429.895 345.217 427.246 335.151 427.246 335.151C427.246 335.104 424.954 317.62 421.788 314.84C418.623 312.061 414.556 295.741 414.556 295.741C414.556 295.741 413.861 286.886 412.442 284.98C411.024 283.074 409.107 278.407 406.28 271.749C403.453 265.092 391.664 260.481 391.664 260.481C391.664 260.481 370.351 248.124 364.311 244.095C363.762 243.764 363.249 243.377 362.78 242.94C361.728 241.56 357.144 241.532 357.144 241.532C356.665 238.508 356.204 235.034 356.054 231.888C356.054 231.55 356.054 231.212 356.007 230.874C362.742 226.894 367.815 220.62 370.294 213.202C370.407 212.845 370.501 212.47 370.604 212.113C371.008 211.98 371.379 211.764 371.695 211.48C372.01 211.195 372.262 210.848 372.436 210.46C372.981 209.249 372.99 207.831 373.666 206.704C374.456 205.371 375.958 204.657 377.142 203.652C380.129 201.117 380.899 196.844 380.758 192.957C380.664 189.811 380.157 186.637 380.355 183.511L380.411 182.722C380.467 182.252 380.533 181.783 380.618 181.332C381.078 179.003 382.083 176.806 382.646 174.496C383.21 172.186 383.266 169.585 381.951 167.594C380.026 164.674 376.015 164.092 372.492 163.791C368.5 163.453 364.931 163.895 362.376 160.58C361.18 158.847 359.835 157.223 358.355 155.725C357.829 155.237 352.719 152.119 352.719 151.913C347.732 149.604 342.079 149.17 336.798 150.692C334.149 151.462 331.65 152.72 328.964 153.35C323.168 154.721 316.499 153.237 311.577 156.552C308.834 158.43 307.19 161.416 305.649 164.327C304.397 166.724 303.126 169.119 301.836 171.51C299.76 175.444 297.646 179.445 296.773 183.802C296.589 184.75 296.476 185.71 296.435 186.675V186.722C296.435 187.069 296.435 187.417 296.435 187.764V188.206C296.435 188.534 296.435 188.854 296.491 189.145C296.547 189.436 296.538 189.53 296.566 189.727C296.594 189.924 296.641 190.365 296.698 190.666C296.754 190.966 296.867 191.492 296.979 191.905C297.026 192.084 297.092 192.253 297.148 192.422C297.242 192.741 297.355 193.051 297.477 193.361C297.543 193.52 297.609 193.689 297.684 193.849C297.825 194.178 297.994 194.497 298.163 194.788C298.238 194.92 298.294 195.042 298.37 195.164C298.632 195.6 298.92 196.021 299.234 196.422C301.244 198.929 304.203 200.525 306.391 202.873C306.391 202.967 306.391 203.061 306.391 203.145C306.391 203.408 306.391 203.662 306.391 203.925C306.508 209.16 307.902 214.288 310.452 218.862C313.003 223.436 316.633 227.318 321.026 230.17C321.026 230.527 321.073 230.893 321.092 231.25C321.275 234.037 321.241 236.834 320.989 239.616C320.606 239.166 320.127 238.807 319.588 238.567C319.048 238.326 318.461 238.21 317.87 238.227C317.467 238.207 317.062 238.242 316.668 238.33L316.583 238.264V238.349C314.517 238.856 311.971 241.006 309.538 247.119C309.538 247.119 302.136 255.457 296.5 255.11C290.864 254.763 276.596 263.786 276.596 263.786C276.596 263.786 262.675 272.82 259.688 282.022C258.018 287.24 256.016 292.346 253.695 297.309L236.486 332.757L233.311 360.88C233.311 360.88 235.068 373.388 234.72 375.294C234.373 377.2 241.944 394.393 241.944 394.393C241.944 394.393 266.958 438.329 277.178 440.583L277.911 440.067C278.348 440.295 278.812 440.468 279.292 440.583L281.396 439.099C281.522 440.753 281.469 442.415 281.236 444.057C279.827 448.396 281.762 476.707 284.223 482.256C286.684 487.806 285.811 560.57 285.811 560.57L285.463 566.992C285.463 566.992 285.463 567.199 285.548 567.556L285.463 569.077L285.717 569.209C285.98 571.246 285.894 573.313 285.463 575.321C284.58 578.139 284.223 586.101 284.223 586.101C284.223 586.101 277.188 631.061 280.522 640.094C283.857 649.128 286.694 659.025 286.694 659.025C286.694 659.025 290.216 670.293 286.863 672.218C283.509 674.143 273.975 677.373 275.938 682.068C277.723 686.406 284.496 698.031 285.501 699.731L285.416 700.623L284.035 715.581C284.259 717.556 284.795 719.483 285.623 721.29C287.135 724.549 290.075 727.929 295.664 727.563C296.604 727.497 297.693 727.385 298.745 727.244C308.975 725.873 321.571 721.309 321.571 721.309C320.917 720.894 320.318 720.399 319.786 719.835C319.284 719.348 318.885 718.764 318.615 718.118C318.346 717.473 318.21 716.779 318.218 716.079C318.368 713.356 313.267 700.379 311.999 697.186C311.802 696.726 311.699 696.463 311.699 696.463C311.699 696.463 323.328 684.312 321.393 673.542C321.393 673.542 308.524 666.03 312.76 661.908C316.997 657.785 324.568 645.944 324.568 645.944C324.568 645.944 324.915 601.67 324.568 595.059C324.205 590.471 324.423 585.856 325.216 581.322C325.357 580.636 325.526 579.97 325.704 579.312C331.563 580.187 337.477 580.635 343.401 580.655C345.562 580.655 347.76 580.655 349.977 580.524C349.977 581.15 350.005 581.826 350.061 582.552C350.549 593.52 351.461 612.75 352.203 619.896C353.255 630.141 359.069 657.748 359.069 657.748C359.069 657.748 347.976 664.865 361.004 682.406C361.004 682.406 361.004 688.763 360.14 689.683C359.217 692.692 358.474 695.752 357.914 698.848C357.369 702.153 357.144 705.496 358.027 707.234C360.14 711.384 372.821 711.046 372.821 711.046L373.131 710.99C375.525 710.742 377.944 710.973 380.249 711.667C382.553 712.362 384.696 713.507 386.554 715.037C391.373 718.905 409.662 717.206 419.562 715.976C423.442 715.487 426.034 715.037 426.034 715.037C426.16 714.598 426.204 714.139 426.166 713.685C426.062 711.252 424.156 705.919 411.23 701.158C411.23 701.158 399.075 692.989 399.244 685.871H398.991H397.582C398.606 685.815 399.263 685.871 399.263 685.871C399.263 685.871 394.501 668.499 396.445 667.091C398.39 665.682 392.566 646.433 392.566 646.433C392.566 646.433 389.231 614.131 389.053 611.868C389.06 609.926 389.355 607.996 389.926 606.14L389.053 588.43C389.053 588.43 388.884 582.542 389.053 580.627C389.024 578.964 388.889 577.305 388.649 575.66C388.564 575.002 388.48 574.317 388.386 573.641C392.942 572.486 395.9 571.415 395.9 571.415L395.374 509.769C399.244 502.257 399.958 485.778 399.94 474.087C399.94 466.575 399.601 461.016 399.601 461.016L404.89 452.386C404.89 452.386 406.111 442.057 404.176 439.794C403.321 438.771 403.706 437.71 404.411 436.836C404.777 436.546 405.163 436.283 405.566 436.048C405.566 436.048 405.51 435.963 405.444 435.841C405.813 435.533 406.206 435.253 406.618 435.005C406.618 435.005 404.74 432.094 406.421 430.864C407.999 431.935 409.408 432.742 410.479 433.4C410.404 434.085 410.329 434.48 410.329 434.48L410.779 433.54C411.813 434.123 412.442 434.48 412.442 434.48C412.442 434.48 420.727 417.981 420.549 415.549C420.37 413.117 426.185 402.872 426.185 402.872C426.185 402.872 426.889 397.492 430.064 395.238C433.239 392.985 432.525 376.655 432.525 376.655C432.525 376.655 433.408 368.148 435.522 364.674C437.635 361.199 433.596 356.514 433.596 356.514ZM275.074 349.274L275.234 353.208C274.294 351.696 273.618 350.607 273.618 350.607L275.074 349.274Z" fill="url(#paint0_linear_20_50)"/>
<path d="M412.893 427.352L410.864 435.991C410.864 435.991 394.614 427.7 391.683 417.164C388.752 406.628 396.586 402.628 396.586 402.628L411.728 409.042L412.893 427.352Z" fill="white"/>
<path opacity="0.1" d="M412.893 427.352L410.864 435.991C410.864 435.991 394.614 427.7 391.683 417.164C388.752 406.628 396.586 402.628 396.586 402.628L411.728 409.042L412.893 427.352Z" fill="black"/>
<path d="M321.693 721.366C321.693 721.366 306.664 726.887 296.331 727.582C290.846 727.948 287.962 724.586 286.478 721.347C285.667 719.546 285.144 717.629 284.928 715.666L286.271 700.783L286.985 692.857L308.937 687.157L312.046 696.66L312.337 697.383C313.587 700.557 318.593 713.469 318.443 716.163C318.437 716.854 318.57 717.538 318.835 718.175C319.1 718.812 319.49 719.39 319.984 719.873C320.488 720.441 321.062 720.943 321.693 721.366Z" fill="white"/>
<path d="M424.353 713.797C424.39 714.249 424.346 714.704 424.221 715.14C424.221 715.14 392.077 720.502 385.502 715.14C383.648 713.574 381.487 712.412 379.158 711.73C376.828 711.047 374.382 710.859 371.976 711.177C371.976 711.177 359.539 711.515 357.463 707.421C356.599 705.703 356.824 702.369 357.36 699.083C357.906 696.003 358.634 692.959 359.539 689.965L360.037 689.571L362.996 687.195L397.638 686.172H397.901C397.732 693.252 409.662 701.374 409.662 701.374C422.333 706.069 424.203 711.374 424.353 713.797Z" fill="white"/>
<path opacity="0.1" d="M424.353 713.797C424.386 714.25 424.338 714.704 424.212 715.14C424.212 715.14 392.077 720.502 385.502 715.14C383.649 713.575 381.49 712.414 379.162 711.731C376.835 711.049 374.39 710.86 371.985 711.177C371.985 711.177 359.539 711.515 357.472 707.421C356.608 705.694 356.824 702.369 357.36 699.083C362.15 699.562 369.712 700.754 372.68 703.6C377.17 707.928 384.779 712.248 389.447 712.586C393.101 712.821 414.959 713.515 424.353 713.797Z" fill="black"/>
<path opacity="0.1" d="M321.693 721.366C321.693 721.366 306.664 726.887 296.331 727.582C290.846 727.948 287.962 724.586 286.487 721.337C290.31 722.624 295.617 723.976 298.407 722.737C301.714 721.272 313.437 720.323 320.012 719.919C320.512 720.467 321.077 720.953 321.693 721.366Z" fill="black"/>
<path d="M343.993 276.416C331.594 271.599 315.644 255.683 319.627 248.246C320.511 246.369 321.037 244.344 321.177 242.274C321.433 239.464 321.47 236.638 321.289 233.823C321.01 229.211 320.455 224.621 319.627 220.076C319.627 220.076 358.337 220.949 356.082 226.649C355.425 228.32 355.321 231.222 355.5 234.471C355.678 237.72 356.148 241.391 356.636 244.499C357.313 248.762 357.989 252.011 357.989 252.011C357.989 252.011 355.622 255.326 354.232 255.504C352.841 255.683 361.784 283.28 343.993 276.416Z" fill="#CF6F80"/>
<path opacity="0.1" d="M312.309 697.383L312.018 697.703C300.446 683.711 286.449 701.149 286.449 701.149L286.243 700.783L286.957 692.857L308.909 687.157L312.018 696.66L312.309 697.383Z" fill="black"/>
<path opacity="0.1" d="M397.911 687.157C397.911 687.157 389.457 686.979 384.948 690.96C380.439 694.942 358.647 691.824 359.586 690.96C359.864 690.532 360.032 690.042 360.074 689.533L363.033 687.157L397.676 686.134C397.807 686.763 397.911 687.157 397.911 687.157Z" fill="black"/>
<path d="M326.709 577.284C326.08 578.84 325.601 580.453 325.281 582.101C324.498 586.614 324.28 591.207 324.633 595.773C324.981 602.346 324.633 646.395 324.633 646.395C324.633 646.395 317.203 658.142 313.061 662.283C308.918 666.424 321.515 673.861 321.515 673.861C323.393 684.566 312.009 696.66 312.009 696.66C300.436 682.669 286.44 700.116 286.44 700.116C286.44 700.116 278.831 686.97 276.934 682.275C275.037 677.58 284.364 674.331 287.642 672.424C290.921 670.518 287.483 659.278 287.483 659.278C287.483 659.278 284.712 649.428 281.424 640.442C278.136 631.455 285.05 586.721 285.05 586.721C285.05 586.721 285.407 578.777 286.262 576.007C286.693 574.008 286.779 571.95 286.515 569.922C286.459 569.237 286.393 568.664 286.346 568.279C286.299 567.894 286.262 567.716 286.262 567.716L286.393 567.49L291.09 558.739C291.09 558.739 328.964 571.772 326.709 577.284Z" fill="#3DD775"/>
<path d="M397.911 686.125C397.911 686.125 389.457 685.946 384.948 689.881C380.439 693.815 358.647 690.745 359.586 689.881C360.525 689.017 360.45 682.622 360.45 682.622C347.666 665.175 358.571 658.095 358.571 658.095C358.571 658.095 352.86 630.629 351.827 620.441C351.104 613.323 350.211 594.196 349.732 583.275C349.526 578.58 349.404 575.35 349.404 575.35L359.849 573.246L361.192 572.974L386.385 567.922C386.385 567.922 387.08 572.617 387.55 576.458C387.784 578.097 387.916 579.75 387.944 581.406C387.775 583.284 387.944 589.163 387.944 589.163L388.799 606.788C388.241 608.636 387.953 610.556 387.944 612.488C388.113 614.732 391.392 646.865 391.392 646.865C391.392 646.865 397.093 666.039 395.149 667.42C393.205 668.8 397.911 686.125 397.911 686.125Z" fill="#3DD775"/>
<path opacity="0.1" d="M356.082 226.649C355.425 228.32 355.321 231.222 355.5 234.471C350.315 237.592 344.354 239.188 338.303 239.075C332.251 238.962 326.354 237.145 321.289 233.832C321.01 229.217 320.455 224.624 319.627 220.076C319.627 220.076 358.337 220.93 356.082 226.649Z" fill="black"/>
<path d="M371.046 205.897C371.053 209.28 370.52 212.644 369.468 215.859C367.114 223.065 362.288 229.207 355.843 233.2C349.398 237.193 341.748 238.779 334.246 237.679C326.744 236.579 319.872 232.863 314.845 227.188C309.819 221.513 306.961 214.244 306.777 206.667C306.777 206.404 306.777 206.159 306.777 205.897C306.704 201.631 307.481 197.394 309.063 193.432C310.646 189.47 313.002 185.863 315.993 182.821C318.985 179.779 322.552 177.362 326.488 175.713C330.424 174.064 334.648 173.214 338.916 173.214C343.183 173.214 347.408 174.064 351.344 175.713C355.279 177.362 358.847 179.779 361.838 182.821C364.83 185.863 367.186 189.47 368.768 193.432C370.351 197.394 371.128 201.631 371.055 205.897H371.046Z" fill="#CF6F80"/>
<path opacity="0.1" d="M343.993 276.416C331.594 271.599 315.644 255.683 319.627 248.246C320.511 246.369 321.037 244.344 321.177 242.274L338.15 256.218L348.652 264.829L356.636 244.509C357.313 248.772 357.989 252.021 357.989 252.021C357.989 252.021 355.622 255.335 354.232 255.514C352.841 255.692 361.784 283.28 343.993 276.416Z" fill="black"/>
<path d="M387.888 338.043L373.713 576.082L355.227 577.293L307.359 439.268L315.212 275.402L316.865 240.781L338.15 258.256L348.661 266.866L356.881 245.955L372.164 259.27L387.888 338.043Z" fill="#3DD775"/>
<path opacity="0.1" d="M326.709 577.284C326.08 578.84 325.601 580.453 325.281 582.101C311.83 580.025 298.766 575.945 286.525 569.997L286.271 569.866L286.356 568.354L286.403 567.565L291.099 558.814C291.099 558.814 328.964 571.772 326.709 577.284Z" fill="black"/>
<path opacity="0.1" d="M360.065 582.139C356.626 582.723 353.158 583.118 349.676 583.322C349.469 578.627 349.347 575.397 349.347 575.397L359.793 573.293L360.065 582.139Z" fill="black"/>
<path opacity="0.1" d="M387.493 576.505C380.815 578.242 370.501 580.195 361.267 578.974L361.136 573.021L386.329 567.969C386.329 567.969 387.024 572.617 387.493 576.505Z" fill="black"/>
<path opacity="0.1" d="M361.098 580.064C322.586 586.637 287.314 567.791 287.314 567.791L287.652 561.405C287.652 561.405 288.525 489.017 286.102 483.468C283.678 477.918 281.79 449.776 283.162 445.457C284.533 441.137 278.155 376.364 278.155 376.364L277.122 350.072L239.304 334.757L256.212 299.525C258.496 294.586 260.46 289.504 262.093 284.313C265.033 275.167 278.681 266.181 278.681 266.181C278.681 266.181 292.677 257.204 298.21 257.542C303.743 257.88 310.994 249.598 310.994 249.598C316.348 235.954 321.195 242.133 321.195 242.133C321.195 242.781 321.195 242.133 320.932 244.152C319.054 259.129 351.31 306.455 351.771 307.291L354.842 382.092L357.951 476.754L361.098 580.064Z" fill="black"/>
<path d="M360.065 580.064C321.552 586.637 286.271 567.791 286.271 567.791L286.619 561.405C286.619 561.405 287.492 489.017 285.059 483.468C282.626 477.918 280.748 449.776 282.129 445.457C283.509 441.137 277.122 376.364 277.122 376.364L276.079 350.072L238.243 334.7L255.151 299.469C257.43 294.527 259.394 289.446 261.031 284.257C263.962 275.111 277.62 266.125 277.62 266.125C277.62 266.125 291.616 257.148 297.139 257.486C302.662 257.824 309.923 249.542 309.923 249.542C315.287 235.898 321.195 242.077 321.195 242.077C321.195 242.724 320.632 243.016 320.932 244.095C325.065 258.622 350.277 306.399 350.737 307.234L353.847 382.036L356.956 476.697L360.065 580.064Z" fill="white"/>
<path opacity="0.1" d="M349.685 309.366C345.543 307.638 323.6 282.595 323.6 282.595V276.895C322.802 275.017 318.058 276.163 314.207 277.477L315.86 242.856L317.739 244.415C321.853 258.932 349.206 308.53 349.685 309.366Z" fill="black"/>
<path d="M350.728 307.291C346.576 305.563 324.633 280.52 324.633 280.52V274.82C323.835 272.942 319.091 274.087 315.24 275.402L316.903 240.781L318.781 242.339C322.905 256.857 350.268 306.464 350.728 307.291Z" fill="white"/>
<path opacity="0.1" d="M287.314 432.188C287.83 432.188 314.094 429.428 314.094 429.428C314.094 429.428 329.997 460.687 328.954 468.293C327.912 475.899 326.024 482.632 319.627 481.439C313.23 480.247 285.2 482.378 285.2 482.378L287.314 432.188Z" fill="black"/>
<path d="M286.271 430.113C286.788 430.113 313.051 427.352 313.051 427.352C313.051 427.352 328.945 458.621 327.912 466.218C326.878 473.815 324.971 480.557 318.584 479.364C312.197 478.172 284.157 480.303 284.157 480.303L286.271 430.113Z" fill="white"/>
<path d="M306.063 415.436C306.063 415.436 330.166 428.385 330.683 432.339C331.199 436.292 318.415 430.611 315.653 429.925C313.836 429.487 311.985 429.199 310.121 429.061L291.7 429.559L306.063 415.436Z" fill="#CF6F80"/>
<path opacity="0.1" d="M342.96 310.981C344.36 310.981 345.496 309.846 345.496 308.446C345.496 307.046 344.36 305.91 342.96 305.91C341.559 305.91 340.423 307.046 340.423 308.446C340.423 309.846 341.559 310.981 342.96 310.981Z" fill="black"/>
<path d="M342.96 309.948C344.36 309.948 345.496 308.813 345.496 307.413C345.496 306.013 344.36 304.877 342.96 304.877C341.559 304.877 340.423 306.013 340.423 307.413C340.423 308.813 341.559 309.948 342.96 309.948Z" fill="#3F3D56"/>
<path opacity="0.1" d="M347.628 420.732C349.029 420.732 350.164 419.597 350.164 418.197C350.164 416.797 349.029 415.662 347.628 415.662C346.228 415.662 345.092 416.797 345.092 418.197C345.092 419.597 346.228 420.732 347.628 420.732Z" fill="black"/>
<path d="M347.628 419.69C349.029 419.69 350.164 418.555 350.164 417.155C350.164 415.755 349.029 414.62 347.628 414.62C346.228 414.62 345.092 415.755 345.092 417.155C345.092 418.555 346.228 419.69 347.628 419.69Z" fill="#3F3D56"/>
<path opacity="0.1" d="M345.486 365.857C346.887 365.857 348.023 364.722 348.023 363.321C348.023 361.921 346.887 360.786 345.486 360.786C344.086 360.786 342.95 361.921 342.95 363.321C342.95 364.722 344.086 365.857 345.486 365.857Z" fill="black"/>
<path d="M345.486 364.824C346.887 364.824 348.023 363.689 348.023 362.289C348.023 360.888 346.887 359.753 345.486 359.753C344.086 359.753 342.95 360.888 342.95 362.289C342.95 363.689 344.086 364.824 345.486 364.824Z" fill="#3F3D56"/>
<path d="M403.951 428.536C403.951 428.536 405.679 431.127 403.951 432.339C402.222 433.55 404.12 436.48 404.12 436.48C404.12 436.48 399.808 439.006 401.706 441.278C403.603 443.55 402.401 453.814 402.401 453.814L397.215 462.396C397.215 462.396 397.525 467.927 397.544 475.402C397.544 487.064 396.859 503.459 393.064 510.934L393.59 572.26C393.59 572.26 375.432 578.89 360.234 576.871L357.98 478.463C357.98 478.463 361.267 422.657 362.479 411.953C363.188 406.395 363.477 400.792 363.343 395.191C363.343 395.191 362.827 378.439 361.089 370.664C361.089 370.664 359.21 336.982 359.022 327.658C358.938 323.198 359.173 310.183 359.436 297.807C359.727 284.276 360.056 271.514 360.056 271.514L356.627 244.396C356.627 244.396 360.056 244.048 361.089 245.429C361.552 245.861 362.055 246.248 362.592 246.584C368.51 250.584 389.419 262.885 389.419 262.885C389.419 262.885 400.992 267.486 403.763 274.078C406.534 280.67 408.459 285.346 409.803 287.224C411.146 289.102 411.878 297.929 411.878 297.929C411.878 297.929 415.861 314.174 418.97 316.925C422.08 319.676 424.353 337.179 424.353 337.179L396.877 358.777C396.877 358.777 394.463 394.703 393.947 396.093C393.43 397.483 403.951 428.536 403.951 428.536Z" fill="white"/>
<path d="M404.993 428.536C404.993 428.536 406.712 431.127 404.993 432.339C403.274 433.55 405.153 436.48 405.153 436.48C405.153 436.48 400.87 439.034 402.748 441.306C404.627 443.578 403.443 453.842 403.443 453.842L398.258 462.424C398.258 462.424 398.568 467.955 398.596 475.43C398.596 487.092 397.911 503.487 394.116 510.962L394.632 572.289C394.632 572.289 376.447 578.918 361.267 576.899L359.022 478.491C359.022 478.491 362.31 422.686 363.522 411.981C364.232 406.424 364.517 400.82 364.377 395.22C364.377 395.22 363.86 378.468 362.132 370.693C362.132 370.693 360.253 337.01 360.056 327.686C359.971 323.226 360.215 310.211 360.469 297.835C360.76 284.304 361.089 271.543 361.089 271.543L356.561 244.058C356.561 244.058 361.089 244.058 362.132 245.457C362.59 245.894 363.094 246.281 363.634 246.612C369.552 250.612 390.471 262.913 390.471 262.913C390.471 262.913 402.034 267.514 404.805 274.106C407.576 280.698 409.502 285.374 410.855 287.252C412.207 289.13 412.921 297.957 412.921 297.957C412.921 297.957 416.904 314.202 420.013 316.953C423.122 319.704 425.367 337.17 425.367 337.17L397.892 358.767C397.892 358.767 395.478 394.694 394.952 396.083C394.426 397.473 404.993 428.536 404.993 428.536Z" fill="white"/>
<path opacity="0.1" d="M372.088 279.515L374.568 286.745L361.512 299.891C361.803 286.37 362.131 273.599 362.131 273.599L357.604 246.114C357.604 246.114 362.131 246.114 363.174 247.513C363.631 247.95 364.135 248.334 364.677 248.659L375.78 280.679L372.088 279.515Z" fill="black"/>
<path d="M371.046 277.44L373.535 284.67L360.478 297.816C360.77 284.285 361.098 271.524 361.098 271.524L356.561 244.039C356.561 244.039 361.098 244.039 362.132 245.438C362.592 245.873 363.096 246.26 363.634 246.593L374.747 278.604L371.046 277.44Z" fill="white"/>
<path opacity="0.1" d="M371.046 205.897C371.053 209.28 370.52 212.644 369.468 215.859C369.29 215.887 369.109 215.879 368.935 215.835C368.76 215.792 368.597 215.714 368.453 215.606C368.209 207.155 364.048 199.22 358.928 192.469C357.491 190.43 355.749 188.625 353.762 187.116C351.754 185.608 349.256 184.902 346.755 185.135C343.937 185.52 341.447 187.436 338.601 187.68C334.844 187.99 331.481 185.389 327.752 185.257C326.236 185.271 324.74 185.609 323.365 186.247C321.99 186.885 320.767 187.809 319.777 188.957C317.818 191.274 316.362 193.973 315.503 196.882C314.026 201.294 313.222 205.903 313.117 210.554C313.07 213.183 312.816 216.479 310.374 217.437C310.558 215.503 310.338 213.553 309.729 211.708C309.119 209.864 308.133 208.166 306.833 206.723L306.777 206.667C306.777 206.404 306.777 206.159 306.777 205.897C306.704 201.631 307.481 197.394 309.063 193.432C310.646 189.47 313.002 185.863 315.993 182.821C318.985 179.779 322.552 177.362 326.488 175.713C330.424 174.064 334.648 173.214 338.916 173.214C343.183 173.214 347.408 174.064 351.344 175.713C355.279 177.362 358.847 179.779 361.838 182.821C364.83 185.863 367.186 189.47 368.768 193.432C370.351 197.394 371.128 201.631 371.055 205.897H371.046Z" fill="black"/>
<path d="M352.222 154.88C347.34 152.585 341.789 152.151 336.61 153.659C334.008 154.429 331.556 155.678 328.917 156.307C323.281 157.669 316.705 156.195 311.868 159.491C309.181 161.369 307.566 164.336 306.063 167.219L302.305 174.374C300.258 178.29 298.191 182.271 297.336 186.581C296.482 190.891 296.998 195.718 299.732 199.183C301.723 201.709 304.663 203.295 306.824 205.671C308.118 207.116 309.1 208.813 309.707 210.655C310.315 212.497 310.536 214.445 310.355 216.376C312.807 215.437 313.042 212.132 313.098 209.502C313.203 204.851 314.007 200.242 315.484 195.83C316.342 192.92 317.797 190.221 319.758 187.905C320.749 186.758 321.972 185.835 323.347 185.197C324.722 184.559 326.217 184.221 327.733 184.205C331.49 184.337 334.863 186.929 338.582 186.619C341.4 186.384 343.899 184.459 346.736 184.083C349.237 183.847 351.736 184.553 353.743 186.065C355.729 187.571 357.469 189.377 358.9 191.417C364.029 198.168 368.19 206.084 368.434 214.554C369.496 215.334 371.027 214.319 371.553 213.118C372.079 211.916 372.098 210.507 372.765 209.361C373.535 208.037 375.01 207.333 376.165 206.338C379.096 203.812 379.829 199.558 379.716 195.699C379.603 191.84 378.852 187.924 379.584 184.13C380.026 181.802 381.021 179.623 381.566 177.322C382.111 175.022 382.177 172.44 380.89 170.458C379.011 167.547 375.057 166.975 371.609 166.702C367.692 166.364 364.189 166.796 361.69 163.5C360.517 161.78 359.197 160.165 357.745 158.674C357.247 158.185 352.222 155.087 352.222 154.88Z" fill="#512E4E"/>
<path opacity="0.1" d="M250.125 352.898L240.309 334.757L237.2 362.749C237.2 362.749 238.929 375.181 238.581 377.087C238.234 378.993 245.664 396.083 245.664 396.083C245.664 396.083 270.208 439.785 280.231 442.039L314.094 417.85L305.114 406.45C305.114 406.45 302.005 405.239 301.225 406.45C301.225 406.45 284.552 377.773 282.824 375.698C281.095 373.622 281.433 369.481 281.433 369.481C281.433 369.481 278.841 366.721 279.705 364.129C280.569 361.537 274.698 352.551 274.698 352.551L280.053 347.546L250.125 352.898Z" fill="black"/>
<path d="M240.826 332.691L238.233 334.757L235.124 362.749C235.124 362.749 236.853 375.181 236.505 377.087C236.158 378.993 243.597 396.083 243.597 396.083C243.597 396.083 268.132 439.785 278.155 442.039L312.027 417.85L303.038 406.45C303.038 406.45 299.929 405.239 299.149 406.45C299.149 406.45 282.476 377.773 280.748 375.698C279.019 373.622 279.367 369.481 279.367 369.481C279.367 369.481 276.774 366.721 277.638 364.129C278.503 361.537 272.622 352.551 272.622 352.551L277.977 347.546L240.826 332.691Z" fill="white"/>
<path opacity="0.1" d="M401.706 442.348C403.584 444.63 402.401 454.875 402.401 454.875L397.216 463.457C397.216 463.457 397.526 468.997 397.544 476.463L388.827 479.186C388.04 479.432 387.204 479.486 386.391 479.343C385.578 479.201 384.811 478.866 384.154 478.367C383.497 477.868 382.968 477.22 382.613 476.475C382.258 475.73 382.086 474.912 382.111 474.087L383.614 425.625L403.951 433.4C402.222 434.602 404.12 437.55 404.12 437.55C404.12 437.55 399.808 440.067 401.706 442.348Z" fill="black"/>
<path d="M402.748 441.306C404.627 443.588 403.443 453.842 403.443 453.842L398.258 462.424C398.258 462.424 398.568 467.955 398.596 475.43L389.72 478.2C388.948 478.439 388.131 478.491 387.335 478.351C386.539 478.211 385.788 477.883 385.145 477.395C384.502 476.906 383.985 476.271 383.637 475.542C383.289 474.813 383.12 474.012 383.144 473.204L384.657 424.592L405.003 432.367C403.265 433.569 405.162 436.508 405.162 436.508C405.162 436.508 400.87 439.034 402.748 441.306Z" fill="white"/>
<path d="M409.483 418.206C409.483 418.206 408.102 427.024 404.646 427.54C401.189 428.057 399.639 441.804 396.192 441.315C392.744 440.827 395.027 428.536 395.149 426.151C395.271 423.765 391.392 413.887 394.294 411.643C397.197 409.399 406.383 411.643 406.383 411.643L409.483 418.206Z" fill="#CF6F80"/>
<path opacity="0.1" d="M416.838 350.307L423.357 337.161C423.357 337.161 425.95 347.18 425.95 352.532C425.95 357.885 429.576 358.41 429.576 358.41C429.576 358.41 433.549 363.105 431.454 366.523C429.36 369.941 428.514 378.449 428.514 378.449C428.514 378.449 429.2 394.684 426.091 396.929C422.981 399.173 422.333 404.535 422.333 404.535C422.333 404.535 416.622 414.723 416.801 417.145C416.979 419.568 408.854 435.973 408.854 435.973C408.854 435.973 412.827 415.587 389.673 406.779C389.673 406.779 389.494 399.858 391.223 397.961C392.951 396.065 395.647 395.201 393.956 385.614C392.265 376.026 393.468 364.57 393.468 362.27C393.468 359.969 398.653 345.621 398.653 345.621L416.838 350.307Z" fill="black"/>
<path d="M419.656 335.283L425.349 337.161C425.349 337.161 427.95 347.18 427.95 352.532C427.95 357.885 431.576 358.41 431.576 358.41C431.576 358.41 435.55 363.105 433.455 366.523C431.36 369.941 430.524 378.449 430.524 378.449C430.524 378.449 431.21 394.684 428.101 396.929C424.992 399.173 424.296 404.535 424.296 404.535C424.296 404.535 418.595 414.723 418.773 417.145C418.952 419.568 410.817 435.973 410.817 435.973C410.817 435.973 414.8 415.587 391.636 406.779C391.636 406.779 391.467 399.858 393.195 397.961C394.924 396.065 397.619 395.201 395.929 385.613C394.238 376.026 395.44 364.57 395.44 362.27C395.44 359.969 400.625 345.621 400.625 345.621L419.656 335.283Z" fill="white"/>
<path opacity="0.1" d="M293.927 676.021C293.927 676.021 303 670.321 308.956 674.462C314.911 678.603 293.927 676.021 293.927 676.021Z" fill="black"/>
<path opacity="0.1" d="M364.433 658.396C364.433 658.396 372.464 657.363 379.209 664.621C385.953 671.88 364.433 658.396 364.433 658.396Z" fill="black"/>
<g opacity="0.1">
<path d="M376.184 204.281C375.028 205.277 373.544 205.99 372.774 207.314C372.116 208.451 372.098 209.85 371.572 211.07C371.046 212.291 369.515 213.287 368.453 212.517C368.209 204.065 364.038 196.131 358.919 189.37C357.488 187.33 355.748 185.524 353.762 184.018C351.751 182.507 349.249 181.8 346.745 182.036C343.927 182.421 341.447 184.337 338.601 184.572C334.844 184.891 331.472 182.29 327.742 182.158C326.227 182.173 324.732 182.512 323.358 183.152C321.985 183.792 320.764 184.717 319.777 185.867C317.816 188.179 316.36 190.876 315.503 193.783C314.027 198.195 313.223 202.804 313.117 207.455C313.061 210.075 312.816 213.343 310.393 214.319C310.449 215.013 310.449 215.71 310.393 216.404C312.835 215.465 313.079 212.16 313.136 209.53C313.24 204.879 314.045 200.27 315.522 195.858C316.379 192.948 317.835 190.249 319.796 187.933C320.784 186.786 322.006 185.863 323.38 185.225C324.753 184.587 326.247 184.249 327.761 184.234C331.519 184.365 334.9 186.957 338.62 186.647C341.438 186.412 343.937 184.487 346.764 184.111C349.268 183.875 351.77 184.582 353.781 186.093C355.767 187.599 357.506 189.405 358.938 191.445C364.057 198.197 368.228 206.112 368.472 214.582C369.533 215.362 371.064 214.348 371.59 213.146C372.116 211.944 372.135 210.535 372.793 209.39C373.563 208.066 375.047 207.361 376.203 206.366C379.133 203.84 379.866 199.586 379.753 195.727C379.753 195.605 379.753 195.483 379.753 195.37C379.575 198.713 378.682 202.122 376.184 204.281Z" fill="black"/>
<path d="M306.842 203.615C304.682 201.239 301.732 199.652 299.75 197.136C298.081 194.908 297.128 192.226 297.017 189.445C296.721 192.92 297.692 196.385 299.75 199.201C301.732 201.727 304.682 203.314 306.842 205.69C308.917 208.014 310.162 210.959 310.384 214.066C310.527 212.175 310.288 210.275 309.679 208.479C309.071 206.683 308.106 205.029 306.842 203.615Z" fill="black"/>
<path d="M381.585 175.266C381.031 177.567 380.044 179.754 379.594 182.074C379.327 183.624 379.229 185.198 379.302 186.769C379.334 185.874 379.431 184.983 379.594 184.102C380.044 181.773 381.031 179.595 381.585 177.294C381.908 176.025 382.013 174.711 381.895 173.407C381.837 174.033 381.733 174.655 381.585 175.266Z" fill="black"/>
</g>
<path opacity="0.1" d="M124.678 714.201C175.227 714.201 216.206 707.622 216.206 699.505C216.206 691.389 175.227 684.81 124.678 684.81C74.1278 684.81 33.149 691.389 33.149 699.505C33.149 707.622 74.1278 714.201 124.678 714.201Z" fill="#3DD775"/>
<path d="M127.627 417.991H121.737V550.55H127.627V417.991Z" fill="#535461"/>
<path d="M164.637 550.147L164.27 556.119L163.744 564.57L163.528 568.082L163.012 576.533L162.786 580.045L162.26 588.496L156.324 684.34C156.066 688.464 154.245 692.335 151.233 695.164C148.221 697.994 144.244 699.57 140.111 699.571H109.244C105.112 699.57 101.136 697.993 98.1253 695.164C95.1148 692.334 93.2966 688.463 93.0409 684.34L87.1325 588.43L86.6064 579.979L86.3904 576.467L85.8644 568.016L85.6483 564.504L85.1223 556.053L84.7466 550.081C84.6813 548.931 84.8516 547.781 85.2472 546.7C85.6427 545.618 86.2551 544.629 87.0467 543.793C87.8383 542.957 88.7925 542.291 89.8507 541.837C90.9089 541.383 92.0489 541.149 93.2005 541.151H156.333C157.48 541.161 158.614 541.406 159.663 541.87C160.712 542.335 161.654 543.01 162.432 543.852C163.21 544.695 163.807 545.689 164.187 546.771C164.566 547.854 164.719 549.003 164.637 550.147Z" fill="#3F3D56"/>
<path d="M164.27 556.119L163.744 564.542H85.6107L85.0847 556.119H164.27Z" fill="#9D9CB5"/>
<path d="M163.528 568.054L163.012 576.486H86.3528L85.8268 568.054H163.528Z" fill="#9D9CB5"/>
<path d="M162.786 580.007L162.27 588.43H87.0949L86.5689 580.007H162.786Z" fill="#9D9CB5"/>
<path d="M76.0953 467.673C110.39 492.482 124.706 531.282 124.706 531.282C124.706 531.282 83.3752 529.864 49.0707 505.055C14.7663 480.247 0.479065 441.456 0.479065 441.456C0.479065 441.456 41.7909 442.865 76.0953 467.673Z" fill="#3DD775"/>
<path d="M0.450867 441.456C0.450867 441.456 43.3596 465.26 57.1208 484.97C70.882 504.68 124.706 531.282 124.706 531.282" stroke="#535461" stroke-width="2" stroke-miterlimit="10"/>
<path d="M98.2354 417.699C116.9 431.193 124.706 452.311 124.706 452.311C124.706 452.311 102.209 451.541 83.5348 438.048C64.8609 424.554 57.0739 403.427 57.0739 403.427C57.0739 403.427 79.5615 404.196 98.2354 417.699Z" fill="#3DD775"/>
<path d="M57.0739 403.427C57.0739 403.427 80.4257 416.385 87.9121 427.108C95.3986 437.832 124.706 452.311 124.706 452.311" stroke="#535461" stroke-width="2" stroke-miterlimit="10"/>
<path d="M151.806 451.241C130.361 474.801 125.824 505.591 125.824 505.591C125.824 505.591 156.061 498.173 177.487 474.603C198.913 451.034 203.469 420.254 203.469 420.254C203.469 420.254 173.251 427.681 151.806 451.241Z" fill="#3DD775"/>
<path d="M203.488 420.263C203.488 420.263 175.552 444.414 168.451 461.054C161.349 477.693 125.824 505.591 125.824 505.591" stroke="#535461" stroke-width="2" stroke-miterlimit="10"/>
<path d="M939.023 442.949C939.023 442.949 923.514 365.819 929.451 356.223C929.451 356.223 929.667 347.302 929.31 335.931C929.31 335.499 929.31 335.067 929.31 334.625C930.354 335.321 931.443 335.949 932.569 336.503C938.039 339.312 944.319 340.123 950.323 338.794L945.626 333.564C944.499 332.315 943.325 330.963 943.08 329.311C942.836 327.658 943.513 326.184 944.095 324.709C948.557 313.441 948.792 299.272 940.197 290.67C932.936 283.44 931.17 274.106 923.289 267.505C917.531 262.669 914.365 255.58 911.378 248.725C908.851 242.931 906.306 237.09 904.859 230.949C903.732 226.151 903.281 221.184 901.731 216.498C900.181 211.812 897.279 207.258 892.742 205.164C891.126 204.422 889.332 204 887.857 203.014C885.922 201.709 884.757 199.586 883.358 197.727C876.247 188.337 852.435 193.868 841.163 197.68C838.098 198.64 835.261 200.212 832.822 202.3L832.925 202.131C833.009 201.99 833.113 201.849 833.207 201.709C831.973 202.706 830.907 203.895 830.051 205.23C828.407 207.831 827.721 210.864 826.35 213.681C824.696 217.014 815.5 226.32 819.455 230.067C819.732 230.318 820.05 230.521 820.394 230.668C821.879 231.285 823.513 231.449 825.091 231.137L824.922 231.541C823.571 234.846 822.879 238.384 822.883 241.954C822.883 257.382 835.611 269.89 851.326 269.89C854.281 269.893 857.218 269.44 860.034 268.547C860.1 268.904 860.156 269.261 860.222 269.618C860.222 269.759 860.269 269.899 860.288 270.04L859.79 270.735C859.765 270.692 859.737 270.651 859.705 270.613L844.958 291.215C842.703 292.802 829.722 302.192 828.989 309.235C828.219 316.944 827.449 325.968 827.449 325.968L827.345 327.902C826.701 328.44 825.947 328.833 825.136 329.051C824.325 329.27 823.477 329.311 822.649 329.17C818.046 328.418 818.046 346.072 818.046 346.072C818.046 346.072 814.984 348.889 812.88 346.447C810.775 344.006 805.215 352.279 805.215 352.279L770.365 353.781L769.567 353.828L767.688 348.016C767.486 347.402 767.05 346.894 766.475 346.6C765.9 346.307 765.232 346.252 764.617 346.447C764.471 346.495 764.33 346.555 764.194 346.626L764.062 346.701L763.818 346.87L763.696 346.983C763.629 347.044 763.566 347.11 763.508 347.18L763.396 347.311L763.339 347.368C763.122 347.667 762.979 348.014 762.92 348.379C762.861 348.744 762.889 349.118 763.001 349.471L764.617 354.457C757.891 355.809 751.015 359.622 756.623 370.12L728.199 364.871L737.395 372.589L784.869 382.383C784.239 383.51 784.653 385.144 786.616 387.445C795.07 397.37 810.475 400.065 816.674 400.76C818.312 404.421 820.357 407.886 822.771 411.089L822.235 420.977C822.235 420.977 806.539 496.341 803.665 500.163C805.116 498.52 806.444 496.771 807.638 494.933C803.082 510.417 796.714 531.611 795.042 534.785C792.355 539.855 789.866 560.372 792.928 561.687C793.867 562.091 796.554 561.894 800.386 561.603V563.302L800.217 627.709C800.217 627.709 800.988 667.213 798.874 670.978C796.761 674.744 796.197 682.641 796.197 682.641C796.197 682.641 787.743 698.219 781.046 704.482C781 704.531 780.95 704.575 780.895 704.614L780.689 703.149C780.689 703.149 772.639 713.309 754.829 712.736C754.829 712.736 744.111 719.704 760.005 720.079C775.898 720.455 796.197 719.516 796.197 719.516C796.197 719.516 810.372 697.919 822.245 700.736V717.103H825.88V700.473C827.566 699.363 829.009 697.923 830.121 696.24C831.234 694.556 831.993 692.664 832.352 690.679C832.663 688.632 832.435 686.54 831.691 684.609C830.946 682.677 829.711 680.973 828.106 679.664C827.385 679.013 826.807 678.219 826.408 677.334C826.009 676.448 825.797 675.49 825.786 674.518L825.654 674.631C825.654 674.302 825.57 673.964 825.532 673.617C824.49 665.166 823.184 647.729 827.796 634.827C834.118 617.136 836.034 592.496 831.431 577.829C829.946 573.14 828.726 568.372 827.777 563.546C827.665 562.936 827.561 562.354 827.467 561.809C830.614 562.235 833.729 562.862 836.795 563.687C847.456 566.626 870.78 567.171 890.694 567.011C890.741 567.556 890.797 568.129 890.863 568.702C891.218 572.683 891.96 576.62 893.08 580.458C895.578 587.97 896.724 621.089 896.724 621.089C896.724 621.089 899.946 648.32 898.19 659.4C897.25 665.56 896.311 671.748 895.776 677.965V678.087C895.776 678.087 890.497 693.111 886.636 701.271C886.542 701.477 886.439 701.684 886.345 701.881C885.316 701.975 884.302 702.199 883.329 702.548C883.329 702.548 878.154 712.877 872.997 714.586C867.84 716.295 869.549 721.92 881.225 719.854C892.901 717.788 910.533 716.098 910.533 716.098L911.293 705.562L914.882 701.074L913.942 711.581L917.765 710.83L917.258 698.05L923.129 690.707C923.129 690.707 930.221 684.397 919.682 671.983V672.255C919.569 672.077 919.466 671.889 919.343 671.711V671.654C917.596 668.95 916.206 663.908 918.752 654.959C923.354 638.789 926.032 624.112 926.032 624.112C926.032 624.112 936.308 584.796 923.956 566.194H924.5C923.235 563.577 922.34 560.796 921.842 557.931C921.78 557.593 921.723 557.246 921.673 556.889C930.813 556.363 939.783 554.71 947.101 551.142C947.073 551.104 942.667 457.805 939.023 442.949ZM822.987 377.876V378.064L821.108 378.158L822.987 377.876ZM816.543 378.768C816.234 378.837 815.945 378.975 815.698 379.172C814.89 380.314 814.383 381.641 814.223 383.031L811.292 382.374C811.292 382.374 809.235 381.933 806.276 381.435L804.876 380.026C808.728 379.707 812.729 379.238 816.543 378.768Z" fill="url(#paint1_linear_20_50)"/>
<path d="M913.51 698.181L912.392 711.487L916.14 710.736L915.577 696.303L913.51 698.181Z" fill="#1D2366"/>
<path d="M828.003 635.005C823.484 647.869 824.762 665.232 825.776 673.664C826.152 676.781 826.5 678.678 826.5 678.678C826.5 678.678 819.746 694.059 819.182 694.641C818.619 695.224 799.306 707.008 799.306 707.008L785.808 714.886C785.808 714.886 772.112 708.886 778.678 706.82C780.02 706.282 781.228 705.459 782.22 704.407C788.795 698.163 797.052 682.641 797.052 682.641C797.052 682.641 797.615 674.763 799.682 671.016C801.748 667.269 800.997 627.897 800.997 627.897L801.157 563.715V555.349L826.847 555.537C827.009 558.377 827.38 561.202 827.956 563.988C828.878 568.797 830.073 573.55 831.535 578.223C836.062 592.862 834.183 617.38 828.003 635.005Z" fill="#FFB0B1"/>
<path opacity="0.1" d="M826.5 678.678C826.5 678.678 819.746 694.059 819.182 694.641C818.619 695.224 799.306 707.008 799.306 707.008L785.808 714.886C785.808 714.886 772.112 708.886 778.678 706.82C780.02 706.282 781.228 705.459 782.22 704.407L782.802 708.511L787.301 708.323L825.814 673.683C826.152 676.781 826.5 678.678 826.5 678.678Z" fill="black"/>
<path d="M826.03 674.556L787.302 709.431L782.802 709.619L781.863 703.046C781.863 703.046 773.991 713.168 756.501 712.605C756.501 712.605 745.999 719.544 761.564 719.919C777.129 720.295 797.005 719.356 797.005 719.356C797.005 719.356 810.888 697.759 822.508 700.576V716.887H826.077V700.426C827.737 699.309 829.153 697.868 830.241 696.19C831.329 694.511 832.066 692.63 832.408 690.66C832.717 688.63 832.499 686.555 831.773 684.634C831.048 682.713 829.84 681.011 828.266 679.692C827.563 679.034 827.002 678.238 826.618 677.355C826.233 676.472 826.033 675.519 826.03 674.556Z" fill="#1D2366"/>
<path d="M917.08 655.062C914.581 663.983 915.943 669.006 917.653 671.701V671.758C919.845 675.085 921.37 678.807 922.143 682.716L922.293 683.561L904.671 709.243L895.109 712.999C895.109 712.999 879.732 707.75 882.54 706.248C883.245 705.881 884.344 703.928 885.603 701.233C889.36 693.111 894.545 678.124 894.545 678.124V678.002C895.09 671.814 895.954 665.645 896.912 659.504C898.631 648.451 895.475 621.324 895.475 621.324C895.475 621.324 894.348 588.336 891.906 580.833C890.803 577.019 890.07 573.107 889.717 569.152C889.21 564.457 889.097 560.588 889.097 560.588C889.097 560.588 899.223 546.503 917.784 561.715C919.269 562.928 920.575 564.345 921.664 565.922C934.486 584.158 924.162 624.328 924.162 624.328C924.162 624.328 921.579 638.939 917.08 655.062Z" fill="#FFB0B1"/>
<path opacity="0.1" d="M922.321 683.561L904.699 709.243L895.137 712.999C895.137 712.999 879.76 707.75 882.569 706.248C883.273 705.881 884.372 703.928 885.631 701.233C892.14 701.177 895.513 707.374 895.513 707.374L903.76 706.06C903.76 706.06 914.637 684.688 917.08 683.383C919.522 682.077 917.455 673.626 917.455 673.626V671.476C917.521 671.551 917.577 671.636 917.653 671.711V671.767C919.845 675.095 921.37 678.816 922.143 682.725L922.321 683.561Z" fill="black"/>
<path d="M896.076 707.928C896.076 707.928 891.38 699.308 882.381 702.491C882.381 702.491 877.318 712.821 872.255 714.492C867.192 716.163 868.883 721.798 880.324 719.741C891.765 717.685 909.011 715.985 909.011 715.985L909.762 705.478L921.391 690.669C921.391 690.669 928.324 684.387 918.01 672.021V674.171C918.01 674.171 920.076 682.622 917.634 683.927C915.192 685.232 904.352 706.614 904.352 706.614L896.076 707.928Z" fill="#1D2366"/>
<path opacity="0.1" d="M826.876 555.518C827.038 558.358 827.408 561.183 827.984 563.969C817.407 562.419 807.591 563.189 801.157 563.697V555.33L826.876 555.518Z" fill="black"/>
<path opacity="0.1" d="M922.706 568.26C922.706 568.26 907.677 568.993 889.755 569.143C889.247 564.448 889.135 560.579 889.135 560.579C889.135 560.579 899.261 546.494 917.822 561.706C919.306 562.919 920.612 564.335 921.701 565.913C921.992 566.713 922.328 567.497 922.706 568.26Z" fill="black"/>
<path d="M922.706 566.57C922.706 566.57 856.878 569.753 836.814 564.129C816.75 558.504 796.864 563.377 793.867 562.072C790.871 560.767 793.304 540.325 795.934 535.263C798.564 530.202 812.992 479.017 812.992 479.017L826.876 406.657L841.501 402.628L842.534 402.337L868.018 395.313L886.692 390.158C886.692 390.158 923.824 535.076 920.64 545.762C919.483 549.853 919.297 554.158 920.095 558.335C920.581 561.187 921.46 563.958 922.706 566.57Z" fill="#1D2366"/>
<path d="M778.481 357.171C778.481 357.171 765.331 371.256 775.288 379.106C785.244 386.956 791.792 379.857 791.792 379.857L778.481 357.171Z" fill="#C7DAF5"/>
<path opacity="0.1" d="M778.481 357.171C778.481 357.171 765.331 371.256 775.288 379.106C785.244 386.956 791.792 379.857 791.792 379.857L778.481 357.171Z" fill="black"/>
<path d="M884.729 264.566C884.729 264.566 883.189 266.031 880.868 268.19C877.562 271.28 872.668 275.796 868.328 279.581C862.317 284.811 857.357 288.651 859.132 285.374C860.908 282.097 860.569 276.388 859.687 271.045C859.621 270.688 859.564 270.331 859.499 269.984C858.767 266.06 857.798 262.184 856.596 258.378C856.596 258.378 866.309 245.833 871.682 240.884C873.683 239.006 875.082 238.236 875.167 239.541C875.261 241.297 876.576 245.175 878.21 249.288C878.257 249.42 878.304 249.542 878.36 249.673C879.45 252.49 880.681 255.382 881.761 257.88C883.414 261.711 884.729 264.566 884.729 264.566Z" fill="#FFB0B1"/>
<path opacity="0.1" d="M878.36 249.673C877.448 254.581 875.233 259.153 871.948 262.913C868.663 266.672 864.428 269.481 859.687 271.045C858.94 266.758 857.907 262.527 856.596 258.378C856.596 258.378 874.885 234.762 875.167 239.541C875.232 241.354 876.66 245.372 878.36 249.673Z" fill="black"/>
<path opacity="0.1" d="M857.864 277.355L860.231 274.022C860.231 274.022 861.8 283.581 867.567 279.365C873.335 275.148 873.617 311.094 873.617 311.094L867.427 403.614L822.696 400.938L823.964 356.232L829.027 333.696L841.548 300.934L848.997 290.107L857.864 277.355Z" fill="black"/>
<path d="M873.617 311.667L867.981 395.323L867.389 404.187L842.45 402.694L841.51 402.638L822.724 401.511L823.992 356.795L829.055 334.259L841.576 301.497L849.025 290.67L857.892 277.872L860.26 274.547C860.26 274.547 861.828 284.107 867.596 279.89L867.718 279.806C873.354 276.238 873.617 311.667 873.617 311.667Z" fill="#1D2366"/>
<path d="M829.684 326.428C829.684 326.428 827.439 331.123 822.93 330.362C818.422 329.602 818.431 347.264 818.431 347.264C818.431 347.264 815.435 350.081 813.368 347.64C811.302 345.199 805.853 353.452 805.853 353.452L771.718 354.955C771.718 354.955 786.907 361.894 783.929 382.89C783.929 382.89 835.499 379.698 837.19 374.824C838.88 369.951 829.684 326.428 829.684 326.428Z" fill="white"/>
<path opacity="0.03" d="M829.684 326.428C829.684 326.428 827.439 331.123 822.93 330.362C818.422 329.602 818.431 347.264 818.431 347.264C818.431 347.264 815.435 350.081 813.368 347.64C811.302 345.199 805.853 353.452 805.853 353.452L771.718 354.955C771.718 354.955 786.907 361.894 783.929 382.89C783.929 382.89 835.499 379.698 837.19 374.824C838.88 369.951 829.684 326.428 829.684 326.428Z" fill="black"/>
<path d="M730.481 365.988L739.48 373.669L813.556 389.229L804.369 379.857L730.481 365.988Z" fill="white"/>
<path d="M858.005 280.313C856.775 282.191 853.252 291.806 850.312 300.201C847.86 307.197 845.813 313.347 845.813 313.347C845.813 313.347 841.031 344.466 838.589 350.091C836.147 355.715 837.471 377.651 837.471 377.651L828.369 431.822C828.369 431.822 824.246 459.758 817.877 476.444C811.593 492.867 804.595 500.567 804.379 500.811C807.197 496.999 822.555 421.934 822.555 421.934L827.627 327.263C827.627 327.263 828.369 318.268 829.121 310.577C829.872 302.887 845.089 292.389 845.089 292.389L859.762 271.533C861.236 273.505 860.25 276.942 858.005 280.313Z" fill="white"/>
<path d="M819.746 401.98C819.746 401.98 798.141 401.041 787.677 388.477C777.213 375.914 811.865 383.463 811.865 383.463L820.873 385.529L819.746 401.98Z" fill="#FFB0B1"/>
<path opacity="0.1" d="M920.64 545.771C919.483 549.863 919.297 554.168 920.095 558.344C896.527 560.016 871.315 553.649 871.315 553.649C866.619 557.969 854.248 564.335 854.248 564.335L847.503 480.763C843.192 469.495 841.501 410.46 841.501 410.46C841.501 410.46 841.886 407.37 842.44 402.741C842.44 402.628 842.44 402.506 842.487 402.394C844.169 389.463 847.503 365.19 849.138 361.913C851.392 357.406 842.205 345.414 842.205 345.414L846.385 309.779L846.893 305.478C855.704 301.544 862.457 288.98 862.457 288.98L867.643 279.9C873.279 276.285 873.57 311.713 873.57 311.713L867.934 395.37L886.608 390.215C886.608 390.215 923.824 535.085 920.64 545.771Z" fill="black"/>
<path d="M944.828 551.546C919.137 564.298 872.443 552.485 872.443 552.485C867.746 556.804 855.375 563.171 855.375 563.171L848.621 479.599C844.319 468.331 842.628 409.295 842.628 409.295C842.628 409.295 848.058 365.246 850.312 360.749C850.969 359.434 850.65 357.481 849.87 355.377C846.037 345.366 844.628 334.59 845.756 323.93L847.56 308.615L848.058 304.323C856.878 300.38 863.632 287.816 863.632 287.816L868.328 279.59L876.97 264.434L881.066 257.26L881.761 257.889L887.068 262.697C887.068 262.697 889.322 264.575 892.704 267.392C900.059 273.59 912.768 284.501 919.325 291.177C925.092 297.056 926.914 319.92 927.44 337.132C927.788 348.466 927.581 357.349 927.581 357.349C921.767 366.918 936.975 443.738 936.975 443.738C940.516 458.584 944.828 551.546 944.828 551.546Z" fill="white"/>
<path opacity="0.03" d="M895.513 287.628C895.513 287.628 877.881 321.179 879.929 333.93C881.977 346.682 887.801 361.115 884.992 364.486C884.027 365.763 882.78 366.8 881.347 367.515C879.915 368.23 878.336 368.604 876.735 368.608C873.917 368.796 866.403 374.045 866.403 374.608C866.403 375.172 859.461 375.172 853.252 377.801C847.043 380.43 837.875 381.923 837.875 381.923C837.875 381.923 820.028 381.36 818.365 383.05C816.703 384.74 814.993 394.853 818.553 402.919C822.113 410.985 826.068 417.005 829.055 418.103C832.042 419.202 850.998 412.854 866.375 411.352C881.751 409.849 898.443 397.67 898.443 397.67C898.443 397.67 916.826 391.097 920.048 380.045C923.27 368.993 916.112 308.248 916.112 308.248C916.112 308.248 910.702 279.937 895.513 287.628Z" fill="black"/>
<path opacity="0.03" d="M893.258 284.811C893.258 284.811 875.627 318.371 877.693 331.113C879.76 343.856 885.565 358.298 882.747 361.678C881.786 362.957 880.54 363.995 879.109 364.71C877.678 365.425 876.1 365.799 874.5 365.8C871.682 365.988 864.167 371.237 864.167 371.801C864.167 372.364 857.225 372.364 851.016 374.984C844.807 377.604 835.64 379.106 835.64 379.106C835.64 379.106 817.792 378.543 816.139 380.233C814.486 381.923 812.757 392.046 816.327 400.102C819.896 408.159 823.841 414.188 826.829 415.286C829.816 416.385 848.771 410.037 864.148 408.544C879.525 407.051 896.217 394.853 896.217 394.853C896.217 394.853 914.59 388.28 917.775 377.238C920.959 366.195 913.839 305.432 913.839 305.432C913.839 305.432 908.447 277.13 893.258 284.811Z" fill="black"/>
<path d="M894.958 285.938C894.958 285.938 877.327 319.498 879.394 332.24C881.46 344.983 887.265 359.424 884.457 362.796C883.495 364.077 882.249 365.118 880.816 365.835C879.383 366.552 877.802 366.926 876.2 366.927C873.382 367.115 865.867 372.364 865.867 372.918C865.867 373.472 858.935 373.481 852.717 376.111C846.498 378.74 837.34 380.233 837.34 380.233C837.34 380.233 819.492 379.67 817.83 381.36C816.167 383.05 814.458 393.173 818.018 401.229C821.578 409.286 825.532 415.314 828.519 416.413C831.507 417.512 850.462 411.164 865.839 409.661C881.216 408.159 897.908 395.98 897.908 395.98C897.908 395.98 916.291 389.407 919.513 378.355C922.734 367.303 915.624 306.558 915.624 306.558C915.624 306.558 910.138 278.294 894.958 285.938Z" fill="white"/>
<path opacity="0.1" d="M894.573 375.951C894.573 375.951 880.483 373.134 885.387 377.829C890.29 382.524 890.262 386.637 896.264 386.449C902.266 386.261 894.573 375.951 894.573 375.951Z" fill="black"/>
<path opacity="0.1" d="M918.385 476.97C918.385 476.97 912.017 481.28 924.2 491.214C936.383 501.149 918.385 476.97 918.385 476.97Z" fill="black"/>
<path opacity="0.1" d="M906.23 512.398C906.23 512.962 903.976 533.057 912.411 538.08C920.846 543.104 906.23 512.398 906.23 512.398Z" fill="black"/>
<path d="M772.3 354.908C765.5 355.143 750.809 357.218 758.427 371.425C765.162 383.998 776.48 375.594 782.849 369.218C781.296 363.274 777.52 358.152 772.3 354.908Z" fill="#FFB0B1"/>
<path d="M782.934 369.106L783.216 368.815L782.934 369.106Z" fill="#FFB0B1"/>
<path opacity="0.1" d="M892.704 267.965C885.49 272.895 879.441 277.055 878.257 277.919C875.026 280.313 868.864 294.37 864.89 301.544C861.725 307.319 851.439 308.803 847.56 309.169L848.058 304.877C856.878 300.934 863.632 288.37 863.632 288.37L881.066 257.814L887.068 263.27C887.068 263.27 889.322 265.148 892.704 267.965Z" fill="black"/>
<path d="M892.704 267.402C885.49 272.331 879.441 276.491 878.257 277.365C875.026 279.75 868.864 293.807 864.89 300.981C861.725 306.756 851.439 308.239 847.56 308.605L848.058 304.314C856.878 300.37 863.632 287.806 863.632 287.806L881.066 257.251L887.068 262.688C887.068 262.688 889.322 264.547 892.704 267.402Z" fill="#DCE7FF"/>
<path d="M878.821 243.476C878.825 249.112 877.115 254.617 873.917 259.26C870.141 264.75 864.522 268.705 858.078 270.407C851.635 272.109 844.795 271.446 838.799 268.538C832.802 265.63 828.048 260.669 825.397 254.556C822.747 248.444 822.376 241.584 824.353 235.221C826.329 228.858 830.522 223.415 836.17 219.878C841.818 216.341 848.547 214.946 855.136 215.944C861.725 216.943 867.738 220.27 872.084 225.321C876.429 230.372 878.82 236.813 878.821 243.476Z" fill="#FFB0B1"/>
<path opacity="0.1" d="M927.441 337.142C923.626 334.796 920.519 331.46 918.451 327.489C916.883 324.39 915.84 320.812 913.163 318.615C910.749 316.643 907.527 316.164 904.521 315.282C894.639 312.361 886.354 303.347 886.044 293.055C885.894 288.21 887.406 283.374 886.721 278.576C886.331 275.86 885.25 273.29 883.583 271.111C882.755 270.068 881.848 269.092 880.868 268.19C879.553 266.951 878.173 265.749 876.97 264.434C876.213 263.62 875.551 262.722 874.998 261.758C874.551 260.969 874.189 260.135 873.917 259.27C872.039 253.523 873.748 246.706 871.682 240.893L871.569 240.574C870.789 238.508 869.202 236.442 866.995 236.283C864.787 236.123 862.899 237.954 860.795 238.771C856.39 240.48 851.636 237.569 847.964 234.602C844.291 231.635 840.148 228.245 835.48 228.902C832.39 229.344 829.947 231.447 827.101 232.536C826.459 232.785 825.795 232.977 825.119 233.109C827.528 227.104 831.953 222.125 837.635 219.028C843.317 215.93 849.901 214.908 856.255 216.135C862.609 217.363 868.337 220.765 872.455 225.756C876.573 230.747 878.824 237.015 878.821 243.485C878.824 245.439 878.619 247.387 878.21 249.298C878.257 249.429 878.304 249.551 878.361 249.683C879.45 252.5 880.681 255.392 881.761 257.889L887.068 262.697C887.068 262.697 889.322 264.575 892.704 267.392C900.059 273.59 912.768 284.501 919.325 291.177C925.092 297.074 926.896 319.93 927.441 337.142Z" fill="black"/>
<path d="M826.772 215.381C828.116 212.648 828.783 209.587 830.389 206.995C832.747 203.239 836.861 200.835 841.088 199.38C852.125 195.577 875.449 190.055 882.418 199.38C883.79 201.258 884.926 203.342 886.824 204.638C888.27 205.624 890.018 206.047 891.605 206.789C896.048 208.873 898.885 213.418 900.397 218.057C901.91 222.695 902.36 227.672 903.469 232.452C904.887 238.583 907.376 244.396 909.856 250.171C912.778 256.988 915.877 264.059 921.513 268.876C929.207 275.449 930.907 284.755 938.046 291.966C946.5 300.53 946.227 314.662 941.869 325.883C941.296 327.357 940.648 328.897 940.873 330.465C941.099 332.034 942.263 333.461 943.362 334.71L947.984 339.921C937.05 342.56 924.679 336.851 919.588 326.832C918.019 323.733 916.976 320.165 914.29 317.958C911.885 315.986 908.654 315.516 905.657 314.634C895.776 311.704 887.491 302.68 887.181 292.389C887.03 287.553 888.543 282.717 887.857 277.928C887.476 275.194 886.391 272.606 884.71 270.416C882.127 267.045 878.229 264.782 876.125 261.026C872.565 254.744 875.27 246.584 872.706 239.842C871.917 237.776 870.339 235.71 868.131 235.55C865.924 235.391 864.036 237.222 861.922 238.039C857.526 239.748 852.773 236.846 849.1 233.87C845.427 230.893 841.285 227.513 836.607 228.179C833.517 228.611 831.084 230.715 828.238 231.813C826.134 232.621 821.869 233.344 820.028 231.569C816.139 227.991 825.147 218.723 826.772 215.381Z" fill="#591D4B"/>
<path opacity="0.1" d="M922.199 323.733C920.621 320.634 919.588 317.066 916.901 314.869C914.496 312.897 911.265 312.418 908.259 311.535C898.387 308.615 890.102 299.591 889.783 289.299C889.632 284.463 891.145 279.618 890.468 274.829C890.075 272.113 888.992 269.543 887.322 267.364C884.729 263.993 880.831 261.73 878.736 257.974C875.176 251.701 877.881 243.541 875.308 236.79C874.528 234.734 872.94 232.668 870.742 232.499C868.544 232.33 866.637 234.18 864.533 234.996C860.137 236.705 855.375 233.795 851.712 230.827C848.048 227.86 843.887 224.47 839.218 225.127C836.128 225.569 833.686 227.672 830.849 228.761C828.745 229.569 824.471 230.301 822.63 228.527C818.76 224.771 827.768 215.521 829.384 212.197C830.727 209.455 831.394 206.404 833.009 203.812C833.094 203.671 833.188 203.53 833.282 203.389C832.073 204.39 831.03 205.575 830.191 206.901C828.585 209.493 827.918 212.535 826.575 215.287C824.95 218.611 815.942 227.888 819.821 231.616C821.7 233.4 825.927 232.668 828.031 231.86C830.849 230.762 833.31 228.658 836.4 228.226C841.097 227.559 845.23 230.949 848.894 233.917C852.557 236.884 857.347 239.795 861.725 238.086C863.829 237.269 865.67 235.428 867.924 235.597C870.179 235.766 871.682 237.823 872.499 239.889C875.063 246.631 872.358 254.791 875.918 261.073C878.022 264.763 881.92 267.073 884.504 270.463C886.185 272.653 887.269 275.241 887.65 277.975C888.336 282.764 886.824 287.6 886.974 292.436C887.284 302.765 895.569 311.751 905.451 314.681C908.428 315.563 911.678 316.033 914.083 318.005C916.779 320.212 917.841 323.78 919.381 326.878C924.472 336.898 936.843 342.607 947.777 339.968L945.598 337.508C936.12 337.649 926.529 332.259 922.199 323.733Z" fill="black"/>
<path opacity="0.1" d="M857.442 280.876C856.211 282.754 852.689 292.37 849.748 300.765C846.996 299.694 844.498 292.868 844.498 292.868L859.17 272.003C860.673 274.069 859.687 277.496 857.442 280.876Z" fill="black"/>
<path d="M858.005 280.313C856.774 282.191 853.252 291.806 850.312 300.201C847.56 299.14 845.061 292.304 845.061 292.304L859.733 271.449C861.236 273.505 860.25 276.942 858.005 280.313Z" fill="#DCE7FF"/>
<path d="M772.695 376.242L764.56 350.598C764.464 350.298 764.428 349.981 764.454 349.667C764.481 349.353 764.569 349.047 764.714 348.767C764.858 348.487 765.057 348.238 765.299 348.035C765.54 347.832 765.819 347.679 766.12 347.584C766.725 347.395 767.381 347.452 767.944 347.744C768.506 348.036 768.931 348.539 769.125 349.142L777.26 374.759L776.452 380.12L772.695 376.242Z" fill="#BE8B87"/>
<path opacity="0.1" d="M765.331 348.344C765.937 348.152 766.595 348.209 767.16 348.501C767.725 348.793 768.152 349.297 768.346 349.903L776.48 375.519L775.87 379.538L776.462 380.158L777.269 374.796L769.088 349.18C768.894 348.576 768.469 348.074 767.906 347.782C767.343 347.49 766.687 347.432 766.082 347.621C765.573 347.786 765.133 348.117 764.833 348.56C764.992 348.475 765.159 348.402 765.331 348.344Z" fill="white"/>
<path d="M772.695 376.242L777.26 374.796L776.593 379.191L776.452 380.158L775.118 378.768L772.695 376.242Z" fill="#EFC8C4"/>
<path d="M775.118 378.768C775.198 378.668 775.297 378.585 775.41 378.524C775.476 378.482 775.552 378.46 775.63 378.46C775.709 378.46 775.785 378.482 775.851 378.524C775.915 378.601 775.969 378.686 776.011 378.777C776.073 378.881 776.157 378.969 776.258 379.036C776.359 379.103 776.473 379.146 776.593 379.162L776.452 380.101L775.118 378.768Z" fill="#727A9C"/>
<path d="M764.513 359.706C764.513 359.706 780.829 359.612 776.988 366.552C773.146 373.491 767.143 374.327 767.143 374.327L764.513 359.706Z" fill="#FFB0B1"/>
<path d="M663.037 48.2838H662.333C634.303 48.2838 609.514 63.1108 595.255 84.9897C580.996 63.1108 556.207 48.2838 528.177 48.2838H527.473C506.437 48.4842 486.331 56.9753 471.523 71.9119C456.715 86.8484 448.402 107.023 448.39 128.053C448.39 154.167 459.831 191.22 482.141 221.709C524.645 279.806 595.255 330.634 595.255 330.634C595.255 330.634 665.865 279.815 708.36 221.709C730.679 191.22 742.11 154.167 742.11 128.053C742.099 107.025 733.787 86.8515 718.981 71.9152C704.175 56.9789 684.071 48.4867 663.037 48.2838ZM652.958 226.179C649.766 226.167 646.652 225.19 644.025 223.377C641.398 221.564 639.381 218.999 638.239 216.019H621.481C620.378 216.012 619.304 215.661 618.41 215.015C617.515 214.368 616.845 213.459 616.493 212.413L611.346 196.91L595.058 253.805C594.741 254.9 594.076 255.863 593.165 256.549C592.254 257.234 591.145 257.606 590.004 257.608H589.675C588.485 257.55 587.351 257.086 586.462 256.293C585.573 255.5 584.983 254.426 584.791 253.251L568.005 152.326L555.737 212.047C555.456 213.182 554.803 214.189 553.882 214.909C552.961 215.629 551.825 216.02 550.656 216.019H527.05C526.342 216.049 525.636 215.936 524.973 215.685C524.311 215.435 523.706 215.054 523.194 214.564C522.683 214.074 522.276 213.486 521.998 212.835C521.72 212.183 521.577 211.483 521.577 210.775C521.577 210.067 521.72 209.366 521.998 208.715C522.276 208.064 522.683 207.475 523.194 206.985C523.706 206.495 524.311 206.114 524.973 205.864C525.636 205.614 526.342 205.5 527.05 205.53H546.522L563.9 125.236C564.185 124.049 564.874 122.997 565.849 122.262C566.824 121.526 568.024 121.152 569.244 121.203C570.464 121.254 571.629 121.727 572.539 122.541C573.449 123.356 574.048 124.461 574.233 125.668L591.376 228.621L605.973 177.717C606.277 176.645 606.919 175.7 607.805 175.023C608.69 174.346 609.771 173.973 610.885 173.961H610.989C612.093 173.961 613.168 174.31 614.062 174.957C614.956 175.605 615.623 176.518 615.967 177.567L625.276 205.558H638.032C638.939 202.804 640.59 200.354 642.802 198.478C645.014 196.602 647.702 195.373 650.568 194.928C653.434 194.482 656.368 194.837 659.046 195.953C661.723 197.07 664.04 198.903 665.74 201.253C667.441 203.602 668.459 206.375 668.683 209.266C668.906 212.158 668.326 215.054 667.007 217.637C665.687 220.219 663.68 222.387 661.206 223.901C658.732 225.415 655.887 226.217 652.986 226.217L652.958 226.179Z" fill="#3DD775"/>
</g>
<defs>
<linearGradient id="paint0_linear_20_50" x1="334.712" y1="727.61" x2="334.712" y2="149.8" gradientUnits="userSpaceOnUse">
<stop stop-color="#808080" stop-opacity="0.25"/>
<stop offset="0.54" stop-color="#808080" stop-opacity="0.12"/>
<stop offset="1" stop-color="#808080" stop-opacity="0.1"/>
</linearGradient>
<linearGradient id="paint1_linear_20_50" x1="839.228" y1="720.305" x2="839.228" y2="192.581" gradientUnits="userSpaceOnUse">
<stop stop-color="#808080" stop-opacity="0.25"/>
<stop offset="0.54" stop-color="#808080" stop-opacity="0.12"/>
<stop offset="1" stop-color="#808080" stop-opacity="0.1"/>
</linearGradient>
<clipPath id="clip0_20_50">
<rect width="1038" height="735" fill="white"/>
</clipPath>
</defs>
</svg>
